<svg width="158" height="165" viewBox="0 0 158 165" fill="none" xmlns="http://www.w3.org/2000/svg">
<path d="M0 65L45 43V102.5L55.5 108V77L83.5 65V32L157.5 0V164.5H114L113.5 67.5L97.5 59L127.5 46V150.5H144V21L97.5 41V59L113.5 67.5L69.5 87V114.5L83.5 121.5V80.7955L97.5 74.5909V144L30.5 111V66L14 74V150H55.5V123.313L69.5 130.209V164.5H0V65Z" fill="#FF6969"/>
<path d="M83.5 80.8002L97.5 74.5798V82.0002L83.5 88.0002V80.8002Z" fill="#E05F5F"/>
<path d="M55.5 123.33L69.5 130.213V141L55.5 134.5V123.33Z" fill="#E05F5F"/>
</svg>
