<svg width="700" height="500" viewBox="0 0 700 500" fill="none" xmlns="http://www.w3.org/2000/svg">
<path d="M642.632 132.22C642.632 132.22 584.632 37.22 441.632 18.22C298.632 -0.779999 272.632 77.22 243.632 104.22C214.632 131.22 164.632 126.22 87.6319 178.22C10.6319 230.22 11.6319 288.22 33.6319 344.22C55.6319 400.22 131.632 449.22 221.632 456.22C311.632 463.22 357.632 421.22 430.632 422.22C503.632 423.22 565.632 453.22 623.632 430.22C681.632 407.22 723.632 222.22 642.632 132.22Z" fill="#FF6969"/>
<path opacity="0.7" d="M642.632 132.22C642.632 132.22 584.632 37.22 441.632 18.22C298.632 -0.779999 272.632 77.22 243.632 104.22C214.632 131.22 164.632 126.22 87.6319 178.22C10.6319 230.22 11.6319 288.22 33.6319 344.22C55.6319 400.22 131.632 449.22 221.632 456.22C311.632 463.22 357.632 421.22 430.632 422.22C503.632 423.22 565.632 453.22 623.632 430.22C681.632 407.22 723.632 222.22 642.632 132.22Z" fill="white"/>
<path d="M603.002 59H185.422V322.45H603.002V59Z" fill="white" stroke="#272F39" stroke-miterlimit="10"/>
<path d="M594.211 67.22H194.211V314.22H594.211V67.22Z" fill="white" stroke="#272F39" stroke-miterlimit="10"/>
<path d="M580.271 273.93C579.751 272 579.021 267.61 580.641 261.16C582.861 252.27 592.301 229.5 588.971 201.16C585.641 172.82 552.871 145.62 529.541 142.29C506.211 138.96 431.241 81.2 372.931 81.75C314.621 82.3 273.001 123.42 263.001 159C253.001 194.58 223.561 189 206.901 216.2C190.241 243.4 201.351 273.96 201.351 273.96L580.271 273.93Z" fill="#FF6969"/>
<path opacity="0.7" d="M580.271 273.93C579.751 272 579.021 267.61 580.641 261.16C582.861 252.27 592.301 229.5 588.971 201.16C585.641 172.82 552.871 145.62 529.541 142.29C506.211 138.96 431.241 81.2 372.931 81.75C314.621 82.3 273.001 123.42 263.001 159C253.001 194.58 223.561 189 206.901 216.2C190.241 243.4 201.351 273.96 201.351 273.96L580.271 273.93Z" fill="white"/>
<path d="M198.211 273.93H587.211" stroke="#272F39" stroke-miterlimit="10"/>
<path d="M483.633 82.56H424.023V250.28H483.633V82.56Z" fill="white" stroke="#272F39" stroke-miterlimit="10"/>
<path d="M424.344 87.66H483.514L482.124 83.05" fill="white"/>
<path d="M424.344 87.66H483.514L482.124 83.05" stroke="#272F39" stroke-miterlimit="10"/>
<path d="M424.344 93.24H483.514L482.124 88.63" fill="white"/>
<path d="M424.344 93.24H483.514L482.124 88.63" stroke="#272F39" stroke-miterlimit="10"/>
<path d="M424.344 98.83H483.514L482.124 94.22" fill="white"/>
<path d="M424.344 98.83H483.514L482.124 94.22" stroke="#272F39" stroke-miterlimit="10"/>
<path d="M424.344 104.41H483.514L482.124 99.8" fill="white"/>
<path d="M424.344 104.41H483.514L482.124 99.8" stroke="#272F39" stroke-miterlimit="10"/>
<path d="M424.344 110H483.514L482.124 105.38" fill="white"/>
<path d="M424.344 110H483.514L482.124 105.38" stroke="#272F39" stroke-miterlimit="10"/>
<path d="M424.344 115.58H483.514L482.124 110.97" fill="white"/>
<path d="M424.344 115.58H483.514L482.124 110.97" stroke="#272F39" stroke-miterlimit="10"/>
<path d="M424.344 121.16H483.514L482.124 116.55" fill="white"/>
<path d="M424.344 121.16H483.514L482.124 116.55" stroke="#272F39" stroke-miterlimit="10"/>
<path d="M424.344 126.75H483.514L482.124 122.14" fill="white"/>
<path d="M424.344 126.75H483.514L482.124 122.14" stroke="#272F39" stroke-miterlimit="10"/>
<path d="M424.344 132.33H483.514L482.124 127.72" fill="white"/>
<path d="M424.344 132.33H483.514L482.124 127.72" stroke="#272F39" stroke-miterlimit="10"/>
<path d="M424.344 137.91H483.514L482.124 133.3" fill="white"/>
<path d="M424.344 137.91H483.514L482.124 133.3" stroke="#272F39" stroke-miterlimit="10"/>
<path d="M424.344 143.5H483.514L482.124 138.89" fill="white"/>
<path d="M424.344 143.5H483.514L482.124 138.89" stroke="#272F39" stroke-miterlimit="10"/>
<path d="M424.344 149.08H483.514L482.124 144.47" fill="white"/>
<path d="M424.344 149.08H483.514L482.124 144.47" stroke="#272F39" stroke-miterlimit="10"/>
<path d="M424.344 154.67H483.514L482.124 150.06" fill="white"/>
<path d="M424.344 154.67H483.514L482.124 150.06" stroke="#272F39" stroke-miterlimit="10"/>
<path d="M424.344 160.25H483.514L482.124 155.64" fill="white"/>
<path d="M424.344 160.25H483.514L482.124 155.64" stroke="#272F39" stroke-miterlimit="10"/>
<path d="M424.344 165.84H483.514L482.124 161.22" fill="white"/>
<path d="M424.344 165.84H483.514L482.124 161.22" stroke="#272F39" stroke-miterlimit="10"/>
<path d="M424.344 171.42H483.514L482.124 166.81" fill="white"/>
<path d="M424.344 171.42H483.514L482.124 166.81" stroke="#272F39" stroke-miterlimit="10"/>
<path d="M424.344 177H483.514L482.124 172.39" fill="white"/>
<path d="M424.344 177H483.514L482.124 172.39" stroke="#272F39" stroke-miterlimit="10"/>
<path d="M424.344 182.59H483.514L482.124 177.98" fill="white"/>
<path d="M424.344 182.59H483.514L482.124 177.98" stroke="#272F39" stroke-miterlimit="10"/>
<path d="M424.344 188.17H483.514L482.124 183.56" fill="white"/>
<path d="M424.344 188.17H483.514L482.124 183.56" stroke="#272F39" stroke-miterlimit="10"/>
<path d="M424.344 193.75H483.514L482.124 189.14" fill="white"/>
<path d="M424.344 193.75H483.514L482.124 189.14" stroke="#272F39" stroke-miterlimit="10"/>
<path d="M424.344 199.34H483.514L482.124 194.73" fill="white"/>
<path d="M424.344 199.34H483.514L482.124 194.73" stroke="#272F39" stroke-miterlimit="10"/>
<path d="M424.344 204.92H483.514L482.124 200.31" fill="white"/>
<path d="M424.344 204.92H483.514L482.124 200.31" stroke="#272F39" stroke-miterlimit="10"/>
<path d="M424.344 210.51H483.514L482.124 205.9" fill="white"/>
<path d="M424.344 210.51H483.514L482.124 205.9" stroke="#272F39" stroke-miterlimit="10"/>
<path d="M424.344 216.09H483.514L482.124 211.48" fill="white"/>
<path d="M424.344 216.09H483.514L482.124 211.48" stroke="#272F39" stroke-miterlimit="10"/>
<path d="M424.344 221.68H483.514L482.124 217.06" fill="white"/>
<path d="M424.344 221.68H483.514L482.124 217.06" stroke="#272F39" stroke-miterlimit="10"/>
<path d="M424.344 227.26H483.514L482.124 222.65" fill="white"/>
<path d="M424.344 227.26H483.514L482.124 222.65" stroke="#272F39" stroke-miterlimit="10"/>
<path d="M424.344 232.84H483.514L482.124 228.23" fill="white"/>
<path d="M424.344 232.84H483.514L482.124 228.23" stroke="#272F39" stroke-miterlimit="10"/>
<path d="M424.344 238.43H483.514L482.124 233.82" fill="white"/>
<path d="M424.344 238.43H483.514L482.124 233.82" stroke="#272F39" stroke-miterlimit="10"/>
<path d="M424.344 244.01H483.514L482.124 239.4" fill="white"/>
<path d="M424.344 244.01H483.514L482.124 239.4" stroke="#272F39" stroke-miterlimit="10"/>
<path d="M547.731 82.56H488.121V250.28H547.731V82.56Z" fill="white" stroke="#272F39" stroke-miterlimit="10"/>
<path d="M488.441 87.66H547.611L546.221 83.05" fill="white"/>
<path d="M488.441 87.66H547.611L546.221 83.05" stroke="#272F39" stroke-miterlimit="10"/>
<path d="M488.441 93.24H547.611L546.221 88.63" fill="white"/>
<path d="M488.441 93.24H547.611L546.221 88.63" stroke="#272F39" stroke-miterlimit="10"/>
<path d="M488.441 98.83H547.611L546.221 94.22" fill="white"/>
<path d="M488.441 98.83H547.611L546.221 94.22" stroke="#272F39" stroke-miterlimit="10"/>
<path d="M488.441 104.41H547.611L546.221 99.8" fill="white"/>
<path d="M488.441 104.41H547.611L546.221 99.8" stroke="#272F39" stroke-miterlimit="10"/>
<path d="M488.441 110H547.611L546.221 105.38" fill="white"/>
<path d="M488.441 110H547.611L546.221 105.38" stroke="#272F39" stroke-miterlimit="10"/>
<path d="M488.441 115.58H547.611L546.221 110.97" fill="white"/>
<path d="M488.441 115.58H547.611L546.221 110.97" stroke="#272F39" stroke-miterlimit="10"/>
<path d="M488.441 121.16H547.611L546.221 116.55" fill="white"/>
<path d="M488.441 121.16H547.611L546.221 116.55" stroke="#272F39" stroke-miterlimit="10"/>
<path d="M488.441 126.75H547.611L546.221 122.14" fill="white"/>
<path d="M488.441 126.75H547.611L546.221 122.14" stroke="#272F39" stroke-miterlimit="10"/>
<path d="M488.441 132.33H547.611L546.221 127.72" fill="white"/>
<path d="M488.441 132.33H547.611L546.221 127.72" stroke="#272F39" stroke-miterlimit="10"/>
<path d="M488.441 137.91H547.611L546.221 133.3" fill="white"/>
<path d="M488.441 137.91H547.611L546.221 133.3" stroke="#272F39" stroke-miterlimit="10"/>
<path d="M488.441 143.5H547.611L546.221 138.89" fill="white"/>
<path d="M488.441 143.5H547.611L546.221 138.89" stroke="#272F39" stroke-miterlimit="10"/>
<path d="M488.441 149.08H547.611L546.221 144.47" fill="white"/>
<path d="M488.441 149.08H547.611L546.221 144.47" stroke="#272F39" stroke-miterlimit="10"/>
<path d="M488.441 154.67H547.611L546.221 150.06" fill="white"/>
<path d="M488.441 154.67H547.611L546.221 150.06" stroke="#272F39" stroke-miterlimit="10"/>
<path d="M488.441 160.25H547.611L546.221 155.64" fill="white"/>
<path d="M488.441 160.25H547.611L546.221 155.64" stroke="#272F39" stroke-miterlimit="10"/>
<path d="M488.441 165.84H547.611L546.221 161.22" fill="white"/>
<path d="M488.441 165.84H547.611L546.221 161.22" stroke="#272F39" stroke-miterlimit="10"/>
<path d="M488.441 171.42H547.611L546.221 166.81" fill="white"/>
<path d="M488.441 171.42H547.611L546.221 166.81" stroke="#272F39" stroke-miterlimit="10"/>
<path d="M488.441 177H547.611L546.221 172.39" fill="white"/>
<path d="M488.441 177H547.611L546.221 172.39" stroke="#272F39" stroke-miterlimit="10"/>
<path d="M488.441 182.59H547.611L546.221 177.98" fill="white"/>
<path d="M488.441 182.59H547.611L546.221 177.98" stroke="#272F39" stroke-miterlimit="10"/>
<path d="M488.441 188.17H547.611L546.221 183.56" fill="white"/>
<path d="M488.441 188.17H547.611L546.221 183.56" stroke="#272F39" stroke-miterlimit="10"/>
<path d="M488.441 193.75H547.611L546.221 189.14" fill="white"/>
<path d="M488.441 193.75H547.611L546.221 189.14" stroke="#272F39" stroke-miterlimit="10"/>
<path d="M488.441 199.34H547.611L546.221 194.73" fill="white"/>
<path d="M488.441 199.34H547.611L546.221 194.73" stroke="#272F39" stroke-miterlimit="10"/>
<path d="M488.441 204.92H547.611L546.221 200.31" fill="white"/>
<path d="M488.441 204.92H547.611L546.221 200.31" stroke="#272F39" stroke-miterlimit="10"/>
<path d="M488.441 210.51H547.611L546.221 205.9" fill="white"/>
<path d="M488.441 210.51H547.611L546.221 205.9" stroke="#272F39" stroke-miterlimit="10"/>
<path d="M488.441 216.09H547.611L546.221 211.48" fill="white"/>
<path d="M488.441 216.09H547.611L546.221 211.48" stroke="#272F39" stroke-miterlimit="10"/>
<path d="M488.441 221.68H547.611L546.221 217.06" fill="white"/>
<path d="M488.441 221.68H547.611L546.221 217.06" stroke="#272F39" stroke-miterlimit="10"/>
<path d="M488.441 227.26H547.611L546.221 222.65" fill="white"/>
<path d="M488.441 227.26H547.611L546.221 222.65" stroke="#272F39" stroke-miterlimit="10"/>
<path d="M488.441 232.84H547.611L546.221 228.23" fill="white"/>
<path d="M488.441 232.84H547.611L546.221 228.23" stroke="#272F39" stroke-miterlimit="10"/>
<path d="M488.441 238.43H547.611L546.221 233.82" fill="white"/>
<path d="M488.441 238.43H547.611L546.221 233.82" stroke="#272F39" stroke-miterlimit="10"/>
<path d="M488.441 244.01H547.611L546.221 239.4" fill="white"/>
<path d="M488.441 244.01H547.611L546.221 239.4" stroke="#272F39" stroke-miterlimit="10"/>
<path d="M431.82 280H431.51V276.77H425.58V280H425.27C424.757 280.013 424.268 280.222 423.905 280.585C423.543 280.948 423.333 281.437 423.32 281.95C423.32 282.472 423.524 282.973 423.888 283.347C424.253 283.721 424.749 283.937 425.27 283.95H426.33C426.037 284.214 425.831 284.56 425.738 284.943C425.646 285.326 425.672 285.728 425.813 286.096C425.954 286.465 426.203 286.781 426.527 287.005C426.851 287.229 427.236 287.349 427.63 287.35V290.35H429.54V287.35C429.936 287.353 430.323 287.234 430.65 287.01C430.976 286.787 431.226 286.468 431.367 286.098C431.507 285.728 431.531 285.324 431.435 284.94C431.339 284.556 431.128 284.211 430.83 283.95H431.9C432.422 283.937 432.918 283.721 433.282 283.347C433.647 282.973 433.85 282.472 433.85 281.95C433.837 281.423 433.617 280.923 433.236 280.557C432.856 280.192 432.347 279.992 431.82 280Z" fill="#272F39"/>
<path d="M256.732 280H256.432V276.77H250.492V280H250.192C249.679 280.013 249.19 280.222 248.827 280.585C248.464 280.948 248.255 281.437 248.242 281.95C248.242 282.472 248.446 282.973 248.81 283.347C249.175 283.721 249.67 283.937 250.192 283.95H251.252C250.959 284.214 250.753 284.56 250.66 284.943C250.568 285.326 250.594 285.728 250.735 286.096C250.875 286.465 251.124 286.781 251.449 287.005C251.773 287.229 252.158 287.349 252.552 287.35V290.35H254.452V287.35C254.846 287.349 255.231 287.229 255.555 287.005C255.88 286.781 256.129 286.465 256.27 286.096C256.411 285.728 256.436 285.326 256.344 284.943C256.252 284.56 256.045 284.214 255.752 283.95H256.812C257.334 283.937 257.83 283.721 258.194 283.347C258.558 282.973 258.762 282.472 258.762 281.95C258.749 281.423 258.528 280.923 258.148 280.557C257.768 280.192 257.259 279.992 256.732 280Z" fill="#272F39"/>
<path d="M441.263 237.43C441.263 237.43 438.923 236.03 437.743 240.01C436.563 243.99 435.633 270.72 435.633 273.3C435.633 275.88 435.873 277.51 432.633 277.75C429.393 277.99 426.533 278.22 426.533 278.22H249.533C249.533 278.22 247.003 277.05 247.003 273.3C247.003 269.55 246.773 249.86 246.533 246.57C246.293 243.28 245.313 239.62 241.613 238.14C235.753 235.79 234.343 228.53 238.563 225.25C242.783 221.97 265.993 219.85 265.993 219.85H412.433C412.433 219.85 438.923 217.51 444.313 223.37C448.923 228.37 446.183 233.45 445.483 235.09C444.783 236.73 441.263 237.43 441.263 237.43Z" fill="#FF6969" stroke="#272F39" stroke-miterlimit="10"/>
<path d="M428.132 229.46C421.342 238.84 422.272 264.86 422.272 264.86H261.482C261.482 264.86 260.312 240.48 255.162 231.81C253.694 229.384 251.612 227.389 249.125 226.027C246.639 224.664 243.837 223.982 241.002 224.05C240.124 224.326 239.292 224.73 238.532 225.25C234.312 228.53 235.722 235.79 241.582 238.14C245.282 239.62 246.272 243.29 246.502 246.57C246.732 249.85 246.972 269.57 246.972 273.3C246.972 277.03 249.552 278.22 249.552 278.22H426.552C426.552 278.22 429.372 277.98 432.652 277.75C435.932 277.52 435.652 275.87 435.652 273.3C435.652 270.73 436.592 244 437.762 240.01C438.932 236.02 441.282 237.43 441.282 237.43C441.282 237.43 444.802 236.73 445.502 235.09C446.202 233.45 448.502 229.17 445.292 224.57C442.202 221.73 434.932 220.09 428.132 229.46Z" fill="#FF6969" stroke="#272F39" stroke-miterlimit="10"/>
<path d="M260.312 249.62C260.312 249.62 268.522 239.07 284.922 237.43C298.265 236.281 311.689 236.439 325.002 237.9C329.462 238.61 338.832 243.06 338.832 243.06C338.832 243.06 362.042 236.06 380.552 236.26C399.062 236.46 407.742 241.89 409.152 242.82C410.562 243.75 421.572 250.32 422.042 253.37C422.512 256.42 423.212 263.92 422.272 264.86C421.332 265.8 261.482 264.86 261.482 264.86C261.482 264.86 259.372 256.42 260.312 249.62Z" fill="#FF6969" stroke="#272F39" stroke-miterlimit="10"/>
<path d="M263.363 249.86C263.363 249.86 321.723 246.81 340.473 251.03" stroke="#272F39" stroke-miterlimit="10"/>
<path d="M352.191 250.79C352.191 250.79 397.431 245.64 418.291 251.97" stroke="#272F39" stroke-miterlimit="10"/>
<path d="M340.941 244.93C340.941 244.93 341.181 257.12 341.181 261.58" stroke="#272F39" stroke-miterlimit="10"/>
<path d="M276.722 211.89C276.722 211.89 265.002 206.73 264.302 210.71C263.602 214.69 269.692 221.03 270.162 222.2C270.632 223.37 272.272 230.87 272.272 230.87C272.272 230.87 269.692 240.48 270.862 240.95C272.032 241.42 282.812 238.14 284.922 237.43C287.032 236.72 305.312 236.73 306.022 236.73C306.732 236.73 307.192 233.92 306.022 232.04C304.852 230.16 303.202 224.04 303.202 221.5C303.202 218.96 302.972 213.29 301.802 212.82C300.632 212.35 291.252 211.89 287.972 211.89H276.722Z" fill="#272F39"/>
<path d="M397.901 212.12C397.901 212.12 385.901 209.31 383.831 209.54C381.761 209.77 381.261 213.76 381.261 213.76C381.261 213.76 376.101 227.82 375.631 229.7C375.161 231.58 371.181 235.79 373.051 236.5C374.921 237.21 393.211 236.96 396.961 238.14C400.711 239.32 409.381 243.76 410.091 242.36C410.801 240.96 409.851 236.26 409.381 234.86C408.911 233.46 411.021 227.35 412.431 224.78C413.841 222.21 415.011 218.45 415.951 217.51C416.891 216.57 422.271 211.65 418.761 210.71C415.251 209.77 400.711 211.89 397.901 212.12Z" fill="#272F39"/>
<path d="M222.4 258.3V159.65C222.714 158.58 223.431 157.673 224.4 157.12C226.16 156.07 228.83 156 232.17 156.9C231.273 158.351 230.741 159.997 230.619 161.699C230.497 163.4 230.789 165.106 231.47 166.67L234.47 173.37L253.71 164.89L250.76 158.18C249.97 156.419 248.714 154.907 247.128 153.808C245.542 152.708 243.686 152.062 241.76 151.94L237.7 142.73L228.87 146.63L232.53 154.93C228.7 153.93 225.63 154.07 223.4 155.39C222.654 155.817 222.003 156.392 221.487 157.08C220.971 157.768 220.601 158.554 220.4 159.39V258.39C217.282 258.722 214.395 260.192 212.292 262.518C210.189 264.844 209.017 267.864 209 271V283.11H234.47V271C234.464 267.741 233.21 264.608 230.965 262.246C228.72 259.883 225.654 258.471 222.4 258.3Z" fill="#272F39"/>
<path d="M404.881 117.39H351.551V186.72H404.881V117.39Z" fill="#272F39" stroke="#272F39" stroke-miterlimit="10"/>
<path d="M402.223 120.86H354.223V183.26H402.223V120.86Z" fill="white" stroke="#272F39" stroke-miterlimit="10"/>
<path d="M338.723 153.39H290.723V186.72H338.723V153.39Z" fill="#272F39" stroke="#272F39" stroke-miterlimit="10"/>
<path d="M336.301 155.07H293.141V185.04H336.301V155.07Z" fill="white" stroke="#272F39" stroke-miterlimit="10"/>
<path d="M335.891 106.39H308.891V142.39H335.891V106.39Z" fill="#272F39"/>
<path d="M334.012 108.89H310.762V139.89H334.012V108.89Z" fill="white" stroke="#272F39" stroke-miterlimit="10"/>
<path d="M559.973 175.79L568.403 256.52" stroke="#272F39" stroke-linecap="round" stroke-linejoin="round"/>
<path d="M566.743 240.73L563.223 237.03" stroke="#272F39" stroke-linecap="round" stroke-linejoin="round"/>
<path d="M564.382 238.24C564.374 237.623 564.235 237.014 563.973 236.456C563.71 235.897 563.332 235.401 562.862 235C561.862 234.13 556.722 232 556.232 233.77C555.702 235.75 561.002 239.63 564.382 238.24Z" fill="#FF6969" stroke="#272F39" stroke-miterlimit="10"/>
<path d="M564.383 238.24L559.473 235.18" stroke="#272F39" stroke-linecap="round" stroke-linejoin="round"/>
<path d="M567.614 249.07L564.184 246.22" stroke="#272F39" stroke-linecap="round" stroke-linejoin="round"/>
<path d="M565.342 247.42C565.334 246.803 565.195 246.194 564.933 245.636C564.67 245.077 564.292 244.581 563.822 244.18C562.822 243.31 557.682 241.18 557.192 242.96C556.702 244.74 561.942 248.81 565.342 247.42Z" fill="#FF6969" stroke="#272F39" stroke-miterlimit="10"/>
<path d="M565.344 247.42L560.434 244.36" stroke="#272F39" stroke-linecap="round" stroke-linejoin="round"/>
<path d="M564.353 217.75L560.883 214.63" stroke="#272F39" stroke-linecap="round" stroke-linejoin="round"/>
<path d="M562.002 215.84C561.995 215.223 561.856 214.614 561.593 214.055C561.331 213.496 560.952 213 560.482 212.6C559.482 211.72 554.342 209.6 553.852 211.37C553.362 213.35 558.642 217.23 562.002 215.84Z" fill="#FF6969" stroke="#272F39" stroke-miterlimit="10"/>
<path d="M562.043 215.84L557.133 212.78" stroke="#272F39" stroke-linecap="round" stroke-linejoin="round"/>
<path d="M565.324 227.51L561.844 223.81" stroke="#272F39" stroke-linecap="round" stroke-linejoin="round"/>
<path d="M563.003 225C562.996 224.383 562.857 223.774 562.595 223.215C562.333 222.656 561.954 222.16 561.483 221.76C560.483 220.88 555.343 218.71 554.853 220.53C554.323 222.53 559.603 226.41 563.003 225Z" fill="#FF6969" stroke="#272F39" stroke-miterlimit="10"/>
<path d="M563.004 225.02L558.094 221.96" stroke="#272F39" stroke-linecap="round" stroke-linejoin="round"/>
<path d="M562.8 203.26L559.32 199.71" stroke="#272F39" stroke-linecap="round" stroke-linejoin="round"/>
<path d="M560.48 200.92C560.472 200.303 560.333 199.694 560.07 199.136C559.808 198.577 559.43 198.081 558.96 197.68C557.96 196.81 552.82 194.68 552.33 196.45C551.8 198.43 557.08 202.31 560.48 200.92Z" fill="#FF6969" stroke="#272F39" stroke-miterlimit="10"/>
<path d="M560.48 200.92L555.57 197.86" stroke="#272F39" stroke-linecap="round" stroke-linejoin="round"/>
<path d="M561.132 187.31L557.762 184.73" stroke="#272F39" stroke-linecap="round" stroke-linejoin="round"/>
<path d="M558.921 185.94C558.914 185.323 558.774 184.714 558.512 184.156C558.25 183.597 557.871 183.101 557.401 182.7C556.401 181.83 551.261 179.7 550.771 181.47C550.241 183.45 555.521 187.33 558.921 185.94Z" fill="#FF6969" stroke="#272F39" stroke-miterlimit="10"/>
<path d="M558.922 185.94L554.012 182.88" stroke="#272F39" stroke-linecap="round" stroke-linejoin="round"/>
<path d="M566.402 235.64L569.302 230.9" stroke="#272F39" stroke-linecap="round" stroke-linejoin="round"/>
<path d="M568.421 232.32C568.299 231.716 568.308 231.092 568.448 230.492C568.588 229.892 568.855 229.328 569.231 228.84C570.011 227.78 574.611 224.59 575.471 226.27C576.331 227.95 572.001 233 568.421 232.32Z" fill="#FF6969" stroke="#272F39" stroke-miterlimit="10"/>
<path d="M568.422 232.32L571.872 229.08" stroke="#272F39" stroke-linecap="round" stroke-linejoin="round"/>
<path d="M563.883 211.47L566.783 206.74" stroke="#272F39" stroke-linecap="round" stroke-linejoin="round"/>
<path d="M565.893 208.16C565.775 207.555 565.787 206.932 565.928 206.332C566.07 205.732 566.337 205.169 566.713 204.68C567.493 203.62 571.093 200.96 571.943 202.68C572.873 204.47 569.513 208.82 565.893 208.16Z" fill="#FF6969" stroke="#272F39" stroke-miterlimit="10"/>
<path d="M565.891 208.16L570.321 203.93" stroke="#272F39" stroke-linecap="round" stroke-linejoin="round"/>
<path d="M562.773 200.86L565.673 196.12" stroke="#272F39" stroke-linecap="round" stroke-linejoin="round"/>
<path d="M564.792 197.54C564.67 196.936 564.68 196.312 564.819 195.712C564.959 195.112 565.226 194.548 565.602 194.06C566.382 193 570.982 189.81 571.842 191.49C572.702 193.17 568.402 198.2 564.792 197.54Z" fill="#FF6969" stroke="#272F39" stroke-miterlimit="10"/>
<path d="M564.793 197.54L569.213 193.31" stroke="#272F39" stroke-linecap="round" stroke-linejoin="round"/>
<path d="M561.141 185.29L564.051 180.55" stroke="#272F39" stroke-linecap="round" stroke-linejoin="round"/>
<path d="M563.163 182C563.044 181.393 563.056 180.769 563.198 180.167C563.339 179.565 563.607 179 563.983 178.51C564.763 177.45 569.363 174.26 570.213 175.94C571.063 177.62 566.783 182.63 563.163 182Z" fill="#FF6969" stroke="#272F39" stroke-miterlimit="10"/>
<path d="M563.16 181.98L567.58 177.75" stroke="#272F39" stroke-linecap="round" stroke-linejoin="round"/>
<path d="M559.901 175.34C559.779 174.734 559.789 174.108 559.931 173.506C560.072 172.903 560.342 172.339 560.721 171.85C561.501 170.79 566.101 167.6 566.951 169.28C567.881 171.11 563.521 176 559.901 175.34Z" fill="#FF6969" stroke="#272F39" stroke-miterlimit="10"/>
<path d="M559.902 175.34L564.322 171.11" stroke="#272F39" stroke-linecap="round" stroke-linejoin="round"/>
<path d="M560.161 175.52C559.546 175.576 558.926 175.499 558.343 175.296C557.76 175.092 557.228 174.766 556.781 174.34C555.781 173.45 553.121 168.55 554.871 167.87C556.791 167.14 561.191 172 560.161 175.52Z" fill="#FF6969" stroke="#272F39" stroke-miterlimit="10"/>
<path d="M560.162 175.52L556.422 170.68" stroke="#272F39" stroke-linecap="round" stroke-linejoin="round"/>
<path d="M572.594 154.03V256.13" stroke="#272F39" stroke-linecap="round" stroke-linejoin="round"/>
<path d="M582.19 186.9L573.82 267.64" stroke="#272F39" stroke-linecap="round" stroke-linejoin="round"/>
<path d="M575.592 251.15L573.652 248.93" stroke="#272F39" stroke-linecap="round" stroke-linejoin="round"/>
<path d="M573.652 248.93C573.771 248.325 573.759 247.702 573.617 247.102C573.476 246.502 573.208 245.939 572.832 245.45C572.052 244.39 567.452 241.2 566.592 242.88C565.732 244.56 570.002 249.59 573.652 248.93Z" fill="#FF6969" stroke="#272F39" stroke-miterlimit="10"/>
<path d="M573.653 248.93L569.473 244.92" stroke="#272F39" stroke-linecap="round" stroke-linejoin="round"/>
<path d="M577.952 228.1L575.082 225.69" stroke="#272F39" stroke-linecap="round" stroke-linejoin="round"/>
<path d="M576.002 226.52C576.124 225.915 576.114 225.291 575.972 224.69C575.831 224.09 575.561 223.527 575.182 223.04C574.402 221.98 569.802 218.8 568.952 220.47C568.002 222.3 572.362 227.18 576.002 226.52Z" fill="#FF6969" stroke="#272F39" stroke-miterlimit="10"/>
<path d="M575.971 226.52L571.801 222.52" stroke="#272F39" stroke-linecap="round" stroke-linejoin="round"/>
<path d="M577.043 239.02L574.133 234.28" stroke="#272F39" stroke-linecap="round" stroke-linejoin="round"/>
<path d="M575.003 235.71C575.121 235.103 575.109 234.479 574.968 233.877C574.827 233.275 574.559 232.71 574.183 232.22C573.403 231.16 568.803 227.98 567.943 229.66C567.083 231.34 571.413 236.37 575.003 235.71Z" fill="#FF6969" stroke="#272F39" stroke-miterlimit="10"/>
<path d="M575.024 235.71L570.844 231.7" stroke="#272F39" stroke-linecap="round" stroke-linejoin="round"/>
<path d="M579.413 213.38L576.633 210.19" stroke="#272F39" stroke-linecap="round" stroke-linejoin="round"/>
<path d="M577.522 211.61C577.641 211.003 577.629 210.378 577.488 209.777C577.346 209.175 577.079 208.61 576.702 208.12C575.922 207.07 571.322 203.88 570.472 205.56C569.622 207.24 573.912 212.27 577.522 211.61Z" fill="#FF6969" stroke="#272F39" stroke-miterlimit="10"/>
<path d="M577.524 211.61L573.344 207.6" stroke="#272F39" stroke-linecap="round" stroke-linejoin="round"/>
<path d="M580.871 199.36L578.191 195.21" stroke="#272F39" stroke-linecap="round" stroke-linejoin="round"/>
<path d="M579.083 196.63C579.201 196.023 579.189 195.397 579.045 194.795C578.902 194.193 578.632 193.629 578.253 193.14C577.483 192.14 572.873 188.9 572.023 190.58C571.173 192.26 575.463 197.29 579.083 196.63Z" fill="#FF6969" stroke="#272F39" stroke-miterlimit="10"/>
<path d="M579.082 196.63L574.902 192.62" stroke="#272F39" stroke-linecap="round" stroke-linejoin="round"/>
<path d="M576.16 246.79L579.98 242.76" stroke="#272F39" stroke-linecap="round" stroke-linejoin="round"/>
<path d="M578.82 244C578.827 243.384 578.965 242.776 579.225 242.217C579.486 241.658 579.862 241.161 580.33 240.76C581.33 239.88 586.47 237.76 586.96 239.52C587.5 241.47 582.22 245.36 578.82 244Z" fill="#FF6969" stroke="#272F39" stroke-miterlimit="10"/>
<path d="M578.82 243.97L584.01 240.74" stroke="#272F39" stroke-linecap="round" stroke-linejoin="round"/>
<path d="M578.672 222.63L582.482 218.6" stroke="#272F39" stroke-linecap="round" stroke-linejoin="round"/>
<path d="M581.32 219.8C581.328 219.183 581.468 218.574 581.73 218.016C581.992 217.457 582.371 216.961 582.84 216.56C583.84 215.69 588.98 213.51 589.47 215.33C590 217.31 584.73 221.19 581.32 219.8Z" fill="#FF6969" stroke="#272F39" stroke-miterlimit="10"/>
<path d="M581.32 219.8L586.52 216.58" stroke="#272F39" stroke-linecap="round" stroke-linejoin="round"/>
<path d="M579.773 212.01L583.583 207.98" stroke="#272F39" stroke-linecap="round" stroke-linejoin="round"/>
<path d="M582.422 209.19C582.429 208.571 582.568 207.961 582.83 207.401C583.092 206.84 583.471 206.342 583.942 205.94C584.942 205.07 590.082 202.89 590.572 204.71C591.112 206.69 585.832 210.57 582.422 209.19Z" fill="#FF6969" stroke="#272F39" stroke-miterlimit="10"/>
<path d="M582.422 209.19L587.622 205.96" stroke="#272F39" stroke-linecap="round" stroke-linejoin="round"/>
<path d="M581.344 195.65L585.204 192.41" stroke="#272F39" stroke-linecap="round" stroke-linejoin="round"/>
<path d="M584 193.62C584.007 193.003 584.146 192.394 584.409 191.835C584.671 191.276 585.05 190.78 585.52 190.38C586.52 189.5 591.66 187.38 592.15 189.14C592.72 191.12 587.44 195 584 193.62Z" fill="#FF6969" stroke="#272F39" stroke-miterlimit="10"/>
<path d="M584.043 193.62L589.243 190.39" stroke="#272F39" stroke-miterlimit="10"/>
<path d="M582.223 186.45C582.23 185.834 582.368 185.226 582.629 184.667C582.889 184.109 583.265 183.612 583.733 183.21C584.733 182.33 589.873 180.16 590.363 181.98C590.903 184 585.623 187.84 582.223 186.45Z" fill="#FF6969" stroke="#272F39" stroke-miterlimit="10"/>
<path d="M582.223 186.45L587.423 183.22" stroke="#272F39" stroke-linecap="round" stroke-linejoin="round"/>
<path d="M582.431 186.68C581.818 186.608 581.228 186.406 580.701 186.086C580.173 185.767 579.719 185.339 579.371 184.83C578.601 183.77 576.981 178.41 578.841 178.11C580.861 177.79 584.171 183.44 582.431 186.68Z" fill="#FF6969" stroke="#272F39" stroke-miterlimit="10"/>
<path d="M582.433 186.68L579.773 181.17" stroke="#272F39" stroke-linecap="round" stroke-linejoin="round"/>
<path d="M572.453 240.59L569.293 236.37" stroke="#272F39" stroke-linecap="round" stroke-linejoin="round"/>
<path d="M570.322 237.69C570.381 237.076 570.307 236.456 570.105 235.873C569.903 235.289 569.578 234.756 569.152 234.31C568.262 233.31 563.362 230.64 562.682 232.4C562.002 234.16 566.802 238.72 570.322 237.69Z" fill="#FF6969" stroke="#272F39" stroke-miterlimit="10"/>
<path d="M570.32 237.69L565.75 234.13" stroke="#272F39" stroke-linecap="round" stroke-linejoin="round"/>
<path d="M572.563 220.22L569.293 217.18" stroke="#272F39" stroke-linecap="round" stroke-linejoin="round"/>
<path d="M570.322 218.5C570.381 217.886 570.306 217.266 570.104 216.683C569.903 216.1 569.578 215.567 569.152 215.12C568.262 214.12 563.362 211.45 562.682 213.21C562.002 214.97 566.802 219.53 570.322 218.5Z" fill="#FF6969" stroke="#272F39" stroke-miterlimit="10"/>
<path d="M570.32 218.5L565.75 214.95" stroke="#272F39" stroke-linecap="round" stroke-linejoin="round"/>
<path d="M572.673 199.06L569.293 194.65" stroke="#272F39" stroke-linecap="round" stroke-linejoin="round"/>
<path d="M570.322 196C570.381 195.386 570.306 194.766 570.104 194.183C569.903 193.6 569.578 193.067 569.152 192.62C568.262 191.62 563.362 188.96 562.682 190.71C562.002 192.59 566.802 197 570.322 196Z" fill="#FF6969" stroke="#272F39" stroke-miterlimit="10"/>
<path d="M570.32 195.97L565.75 192.42" stroke="#272F39" stroke-linecap="round" stroke-linejoin="round"/>
<path d="M572.453 182.5L569.293 179.66" stroke="#272F39" stroke-linecap="round" stroke-linejoin="round"/>
<path d="M570.322 181C570.381 180.386 570.307 179.766 570.105 179.183C569.903 178.599 569.578 178.066 569.152 177.62C568.262 176.62 563.362 173.95 562.682 175.71C562.002 177.6 566.802 182 570.322 181Z" fill="#FF6969" stroke="#272F39" stroke-miterlimit="10"/>
<path d="M570.32 180.98L565.75 177.42" stroke="#272F39" stroke-linecap="round" stroke-linejoin="round"/>
<path d="M572.643 167.5L569.363 165.1" stroke="#272F39" stroke-linecap="round" stroke-linejoin="round"/>
<path d="M570.322 165.92C570.381 165.306 570.307 164.686 570.105 164.103C569.903 163.519 569.578 162.986 569.152 162.54C568.262 161.54 563.362 158.87 562.682 160.63C562.002 162.54 566.802 167 570.322 165.92Z" fill="#FF6969" stroke="#272F39" stroke-miterlimit="10"/>
<path d="M570.32 165.92L565.75 162.36" stroke="#272F39" stroke-linecap="round" stroke-linejoin="round"/>
<path d="M573.25 245.68L575.98 242.22" stroke="#272F39" stroke-linecap="round" stroke-linejoin="round"/>
<path d="M575.002 243.55C574.946 242.935 575.023 242.315 575.226 241.732C575.43 241.149 575.756 240.617 576.182 240.17C577.062 239.17 581.972 236.5 582.642 238.26C583.332 240.17 578.482 244.58 575.002 243.55Z" fill="#FF6969" stroke="#272F39" stroke-miterlimit="10"/>
<path d="M574.953 243.55L579.793 239.8" stroke="#272F39" stroke-linecap="round" stroke-linejoin="round"/>
<path d="M572.602 216.12L575.982 211.71" stroke="#272F39" stroke-linecap="round" stroke-linejoin="round"/>
<path d="M575.002 213C574.947 212.385 575.023 211.766 575.227 211.183C575.43 210.6 575.756 210.067 576.182 209.62C577.062 208.62 581.972 205.95 582.642 207.71C583.312 209.47 578.482 214.06 575.002 213Z" fill="#FF6969" stroke="#272F39" stroke-miterlimit="10"/>
<path d="M574.953 213.03L579.793 209.29" stroke="#272F39" stroke-linecap="round" stroke-linejoin="round"/>
<path d="M572.602 201.06L575.982 196.65" stroke="#272F39" stroke-linecap="round" stroke-linejoin="round"/>
<path d="M575.002 198C574.947 197.385 575.023 196.766 575.227 196.183C575.43 195.6 575.756 195.067 576.182 194.62C577.062 193.62 581.972 190.95 582.642 192.71C583.312 194.47 578.482 199 575.002 198Z" fill="#FF6969" stroke="#272F39" stroke-miterlimit="10"/>
<path d="M574.953 197.97L579.793 194.22" stroke="#272F39" stroke-linecap="round" stroke-linejoin="round"/>
<path d="M572.602 181.15L575.982 176.74" stroke="#272F39" stroke-linecap="round" stroke-linejoin="round"/>
<path d="M575.002 178.06C574.947 177.445 575.023 176.826 575.227 176.243C575.43 175.66 575.756 175.127 576.182 174.68C577.062 173.68 581.972 171.01 582.642 172.77C583.312 174.53 578.482 179.09 575.002 178.06Z" fill="#FF6969" stroke="#272F39" stroke-miterlimit="10"/>
<path d="M574.953 178.06L579.793 174.32" stroke="#272F39" stroke-linecap="round" stroke-linejoin="round"/>
<path d="M572.75 163.97L576.06 161.38" stroke="#272F39" stroke-linecap="round" stroke-linejoin="round"/>
<path d="M575.002 162.41C574.947 161.795 575.023 161.176 575.227 160.593C575.43 160.01 575.756 159.477 576.182 159.03C577.062 158.03 581.972 155.36 582.642 157.12C583.332 159 578.482 163.44 575.002 162.41Z" fill="#FF6969" stroke="#272F39" stroke-miterlimit="10"/>
<path d="M574.953 162.41L579.793 158.67" stroke="#272F39" stroke-linecap="round" stroke-linejoin="round"/>
<path d="M572.402 155.47C572.344 154.856 572.418 154.236 572.62 153.653C572.822 153.07 573.146 152.537 573.572 152.09C574.462 151.09 579.362 148.42 580.042 150.18C580.722 151.94 575.922 156.5 572.402 155.47Z" fill="#FF6969" stroke="#272F39" stroke-miterlimit="10"/>
<path d="M572.402 155.47L577.242 151.72" stroke="#272F39" stroke-linecap="round" stroke-linejoin="round"/>
<path d="M572.633 155.68C572.015 155.672 571.406 155.531 570.847 155.267C570.288 155.003 569.793 154.622 569.393 154.15C568.523 153.15 566.393 148.01 568.173 147.52C570.153 147 574.003 152.28 572.633 155.68Z" fill="#FF6969" stroke="#272F39" stroke-miterlimit="10"/>
<path d="M572.632 155.68L569.422 150.47" stroke="#272F39" stroke-linecap="round" stroke-linejoin="round"/>
<path d="M576.793 282.61H565.983L564.633 255.3H578.143L576.793 282.61Z" fill="#272F39" stroke="#272F39" stroke-miterlimit="10"/>
<path d="M245.691 146.92H264.501V90.46H268.851" stroke="#272F39" stroke-miterlimit="10"/>
<path d="M272.473 85.4H296.353" stroke="#272F39" stroke-miterlimit="10"/>
<path d="M272.473 90.46H296.353" stroke="#272F39" stroke-miterlimit="10"/>
<path d="M272.473 95.53H296.353" stroke="#272F39" stroke-miterlimit="10"/>
<path d="M463.551 293.13H487.431" stroke="#272F39" stroke-miterlimit="10"/>
<path d="M463.551 298.19H487.431" stroke="#272F39" stroke-miterlimit="10"/>
<path d="M463.551 303.26H487.431" stroke="#272F39" stroke-miterlimit="10"/>
<path d="M558.371 293.13H582.251" stroke="#272F39" stroke-miterlimit="10"/>
<path d="M558.371 298.19H582.251" stroke="#272F39" stroke-miterlimit="10"/>
<path d="M558.371 303.26H582.251" stroke="#272F39" stroke-miterlimit="10"/>
<path d="M557.641 78.88H581.531" stroke="#272F39" stroke-miterlimit="10"/>
<path d="M557.641 83.95H581.531" stroke="#272F39" stroke-miterlimit="10"/>
<path d="M557.641 89.02H581.531" stroke="#272F39" stroke-miterlimit="10"/>
<path d="M403.473 285.17V301.81H459.933" stroke="#272F39" stroke-miterlimit="10"/>
<path d="M551.852 102.05H570.672V92.64" stroke="#272F39" stroke-miterlimit="10"/>
<path d="M617 448.43H645.73" stroke="#272F39" stroke-miterlimit="10"/>
<path d="M43.5586 448.43H607.999" stroke="#272F39" stroke-miterlimit="10"/>
<path d="M179.322 209.597L162.477 199.954L147.82 225.555L164.665 235.199L179.322 209.597Z" fill="#FF6969" stroke="#272F39" stroke-miterlimit="10"/>
<path d="M151.51 219.15L143.66 232.86C143.468 233.197 143.372 233.579 143.38 233.967C143.389 234.354 143.503 234.732 143.71 235.06L145.41 237.44C146.123 238.566 146.515 239.864 146.545 241.196C146.575 242.528 146.241 243.843 145.58 245L133 265C131.679 267.313 131.06 269.961 131.22 272.62L131.27 273.41C131.28 273.562 131.328 273.709 131.411 273.836C131.493 273.964 131.607 274.068 131.741 274.14C131.876 274.211 132.026 274.246 132.178 274.243C132.33 274.24 132.479 274.197 132.61 274.12L133.47 273.62C135.547 272.421 137.271 270.697 138.47 268.62L149.53 247.3C150.19 246.143 151.153 245.188 152.317 244.54C153.48 243.891 154.799 243.573 156.13 243.62H158.72C159.075 243.63 159.426 243.541 159.735 243.365C160.044 243.189 160.298 242.931 160.47 242.62L168.37 228.81L151.51 219.15Z" fill="#272F39" stroke="#272F39" stroke-linejoin="round"/>
<path d="M151.511 219.162L143.969 232.336L160.814 241.98L168.356 228.806L151.511 219.162Z" fill="white" stroke="#272F39" stroke-linejoin="round"/>
<path d="M150.578 220.95L167.488 230.63" stroke="#272F39" stroke-linejoin="round"/>
<path d="M149.648 222.56L166.568 232.25" stroke="#272F39" stroke-linejoin="round"/>
<path d="M164.92 201.08L163 204.44" stroke="#272F39" stroke-miterlimit="10"/>
<path d="M167.549 203.41L163.059 211.25" stroke="#272F39" stroke-miterlimit="10"/>
<path d="M173.108 206.1L171.398 209.09" stroke="#272F39" stroke-miterlimit="10"/>
<path d="M175.16 207.43L172.16 212.66" stroke="#272F39" stroke-miterlimit="10"/>
<path d="M235.751 399.25H197.211V451.63H235.751V399.25Z" fill="white" stroke="#272F39" stroke-miterlimit="10"/>
<path d="M235.402 412.88H223.082V443.69H235.402V412.88Z" stroke="#272F39" stroke-miterlimit="10"/>
<path d="M197.2 407.82C197.2 407.82 189.79 421.82 193.64 430.27C196.38 436.27 207.93 440.5 217.89 432.6C227.85 424.7 227.89 406.53 227.89 406.53" stroke="#272F39" stroke-miterlimit="10"/>
<path d="M227.729 408.36C227.55 408.361 227.372 408.327 227.206 408.259C227.04 408.192 226.889 408.092 226.761 407.965C226.634 407.839 226.533 407.688 226.464 407.523C226.395 407.357 226.359 407.179 226.359 407V404.12H229.099V407C229.099 407.179 229.064 407.357 228.995 407.523C228.926 407.688 228.825 407.839 228.698 407.965C228.57 408.092 228.419 408.192 228.253 408.259C228.087 408.327 227.909 408.361 227.729 408.36Z" stroke="#272F39" stroke-miterlimit="10"/>
<path d="M199.48 399.47V412.27C199.48 412.822 199.7 413.351 200.09 413.741C200.48 414.131 201.009 414.35 201.56 414.35C202.112 414.35 202.641 414.131 203.031 413.741C203.421 413.351 203.64 412.822 203.64 412.27V405.48C203.64 404.873 203.882 404.29 204.311 403.861C204.741 403.431 205.323 403.19 205.93 403.19C206.539 403.19 207.122 403.431 207.553 403.86C207.984 404.289 208.228 404.872 208.23 405.48V406.91C208.23 407.255 208.299 407.596 208.431 407.915C208.563 408.233 208.757 408.523 209.001 408.766C209.246 409.01 209.536 409.202 209.855 409.333C210.174 409.465 210.516 409.531 210.86 409.53C211.555 409.53 212.222 409.254 212.713 408.763C213.204 408.271 213.48 407.605 213.48 406.91V404.36C213.48 404.005 213.551 403.653 213.687 403.324C213.823 402.996 214.023 402.698 214.275 402.447C214.527 402.196 214.825 401.998 215.154 401.863C215.483 401.728 215.835 401.659 216.19 401.66H220.84C221.557 401.66 222.245 401.944 222.753 402.45C223.261 402.956 223.548 403.643 223.55 404.36V405.27C223.55 405.472 223.631 405.665 223.773 405.807C223.916 405.95 224.109 406.03 224.31 406.03C224.411 406.031 224.511 406.013 224.604 405.975C224.698 405.937 224.783 405.882 224.854 405.811C224.926 405.74 224.983 405.656 225.022 405.563C225.061 405.47 225.08 405.371 225.08 405.27V403.33C225.08 402.654 225.349 402.005 225.827 401.527C226.306 401.049 226.954 400.78 227.63 400.78H231.42V401C231.42 401.53 231.631 402.039 232.006 402.414C232.381 402.789 232.89 403 233.42 403C233.951 403 234.46 402.789 234.835 402.414C235.21 402.039 235.42 401.53 235.42 401V399.25L199.48 399.47Z" fill="#FF6969" stroke="#272F39" stroke-miterlimit="10"/>
<path d="M279.192 436.495C281.624 426.1 275.169 415.702 264.774 413.269C254.38 410.837 243.981 417.292 241.549 427.687C239.116 438.082 245.571 448.48 255.966 450.912C266.361 453.345 276.76 446.89 279.192 436.495Z" fill="white" stroke="#272F39" stroke-miterlimit="10"/>
<path d="M266.369 449.952C276.212 445.819 280.841 434.489 276.707 424.646C272.573 414.803 261.243 410.174 251.4 414.308C241.557 418.442 236.929 429.772 241.063 439.615C245.196 449.458 256.526 454.086 266.369 449.952Z" fill="#FF6969" stroke="#272F39" stroke-miterlimit="10"/>
<path d="M275.947 434.882C277.466 425.472 271.068 416.611 261.658 415.092C252.247 413.573 243.387 419.97 241.868 429.381C240.349 438.792 246.746 447.652 256.157 449.171C265.567 450.69 274.428 444.293 275.947 434.882Z" fill="#FF6969" stroke="#272F39" stroke-miterlimit="10"/>
<path d="M631.253 147.67C631.522 147.77 631.807 147.821 632.093 147.82C633.106 147.766 634.069 147.367 634.823 146.69C635.433 146.14 635.723 145.57 635.603 145.13C635.572 145.012 635.508 144.905 635.42 144.82C635.332 144.736 635.222 144.677 635.103 144.65C634.233 144.39 632.333 145.23 631.893 145.65C631.433 146.049 631.137 146.605 631.063 147.21L630.843 147.39C630.889 147.226 630.889 147.054 630.843 146.89C630.805 146.797 630.747 146.714 630.673 146.646C630.598 146.579 630.509 146.529 630.413 146.5L630.643 144.25C630.817 144.29 630.995 144.31 631.173 144.31C632.182 144.254 633.142 143.855 633.893 143.18C634.503 142.63 634.793 142.07 634.673 141.62C634.642 141.502 634.578 141.395 634.49 141.31C634.402 141.226 634.292 141.167 634.173 141.14C633.303 140.88 631.403 141.72 630.963 142.14L630.883 142.23C630.749 141.6 630.487 141.005 630.113 140.48C629.865 140.067 629.484 139.75 629.033 139.58C629.459 139.335 629.847 139.028 630.183 138.67C630.733 138.07 630.963 137.47 630.793 137.04C630.748 136.926 630.673 136.826 630.577 136.75C630.48 136.675 630.365 136.626 630.243 136.61C629.353 136.44 627.553 137.47 627.153 137.91C626.931 138.15 626.759 138.432 626.647 138.739C626.536 139.047 626.487 139.373 626.503 139.7L625.833 140.57V134.57C625.853 134.512 625.853 134.448 625.833 134.39V132.9L626.733 132.19C626.922 132.241 627.117 132.268 627.313 132.27C628.418 132.188 629.448 131.679 630.183 130.85C630.733 130.24 630.963 129.65 630.793 129.22C630.749 129.105 630.674 129.005 630.578 128.929C630.481 128.853 630.365 128.805 630.243 128.79C629.097 128.868 628.01 129.325 627.153 130.09C626.732 130.541 626.496 131.133 626.493 131.75L625.833 132.27V128.8H626.043C627.145 128.717 628.171 128.208 628.903 127.38C629.142 127.188 629.326 126.936 629.435 126.649C629.544 126.363 629.575 126.052 629.523 125.75C629.478 125.636 629.403 125.536 629.307 125.46C629.21 125.385 629.095 125.336 628.973 125.32C628.093 125.15 626.283 126.19 625.883 126.63L625.813 126.72C625.616 126.109 625.296 125.544 624.873 125.06C624.323 124.44 623.763 124.16 623.313 124.28C623.196 124.313 623.089 124.376 623.005 124.464C622.92 124.552 622.861 124.661 622.833 124.78C622.573 125.64 623.403 127.54 623.833 127.99C624.224 128.444 624.769 128.736 625.363 128.81V133.96L624.743 133.5C624.742 132.88 624.507 132.283 624.083 131.83C623.227 131.063 622.14 130.602 620.993 130.52C620.872 130.536 620.756 130.585 620.66 130.66C620.563 130.736 620.488 130.836 620.443 130.95C620.273 131.38 620.503 131.95 621.053 132.58C621.786 133.412 622.817 133.922 623.923 134C624.112 134.001 624.3 133.978 624.483 133.93L625.363 134.58V141.44L624.733 140.88C624.716 140.529 624.617 140.186 624.443 139.88C624.582 139.695 624.673 139.479 624.708 139.25C624.743 139.022 624.721 138.788 624.643 138.57C624.593 138.459 624.511 138.365 624.408 138.299C624.305 138.233 624.185 138.199 624.063 138.2C623.637 138.208 623.221 138.325 622.853 138.54C622.405 138.3 621.923 138.132 621.423 138.04C621.868 137.739 622.259 137.368 622.583 136.94C623.073 136.28 623.233 135.67 623.023 135.26C622.967 135.152 622.882 135.06 622.778 134.995C622.675 134.93 622.556 134.894 622.433 134.89C621.543 134.81 619.853 136.03 619.493 136.51C619.477 136.542 619.457 136.572 619.433 136.6C619.171 136.014 618.794 135.487 618.323 135.05C617.723 134.5 617.133 134.27 616.703 134.44C616.589 134.482 616.488 134.554 616.412 134.649C616.336 134.745 616.288 134.859 616.273 134.98C616.343 136.129 616.798 137.221 617.563 138.08C617.984 138.466 618.524 138.698 619.093 138.74L619.623 143.82L619.033 143.37C618.951 142.787 618.659 142.254 618.213 141.87C617.287 141.183 616.156 140.83 615.003 140.87C614.884 140.897 614.774 140.956 614.686 141.04C614.598 141.125 614.535 141.232 614.503 141.35C614.383 141.79 614.673 142.35 615.283 142.91C616.04 143.571 616.999 143.955 618.003 144C618.308 144.005 618.611 143.947 618.893 143.83L619.683 144.43L620.423 151.56L619.823 150.94C619.773 150.292 619.472 149.689 618.983 149.26C618.054 148.58 616.925 148.228 615.773 148.26C615.654 148.291 615.545 148.352 615.458 148.438C615.37 148.524 615.306 148.632 615.273 148.75C615.153 149.19 615.433 149.75 616.053 150.3C616.8 150.984 617.762 151.387 618.773 151.44C619.021 151.436 619.267 151.395 619.503 151.32L620.503 152.32L620.953 156.63C620.837 156.65 620.727 156.701 620.636 156.776C620.545 156.851 620.475 156.949 620.433 157.06C620.388 157.217 620.388 157.383 620.433 157.54C620.282 157.204 620.06 156.904 619.783 156.66C618.855 155.977 617.725 155.625 616.573 155.66C616.454 155.688 616.345 155.749 616.259 155.836C616.172 155.922 616.111 156.031 616.083 156.15C615.963 156.59 616.243 157.15 616.853 157.7C617.607 158.377 618.571 158.776 619.583 158.83C619.856 158.828 620.126 158.781 620.383 158.69L621.293 159.51L621.713 163.57L621.103 162.92C621.086 162.593 621.002 162.273 620.858 161.979C620.713 161.685 620.511 161.424 620.263 161.21C619.334 160.528 618.205 160.176 617.053 160.21C616.934 160.241 616.825 160.302 616.738 160.388C616.65 160.474 616.586 160.582 616.553 160.7C616.433 161.14 616.723 161.7 617.333 162.25C618.085 162.925 619.044 163.324 620.053 163.38C620.294 163.379 620.533 163.342 620.763 163.27L621.763 164.37L621.953 166.27C621.635 166.147 621.292 166.102 620.953 166.14C620.832 166.156 620.716 166.205 620.62 166.28C620.523 166.356 620.448 166.456 620.403 166.57C620.35 166.736 620.333 166.912 620.356 167.085C620.378 167.257 620.439 167.423 620.533 167.57C619.68 167.042 618.685 166.788 617.683 166.84C617.564 166.867 617.454 166.926 617.366 167.01C617.278 167.095 617.215 167.202 617.183 167.32C617.063 167.77 617.343 168.32 617.963 168.88C618.714 169.557 619.674 169.956 620.683 170.01C620.928 170.006 621.17 169.965 621.403 169.89L622.403 170.97L622.473 171.64C622.419 171.687 622.374 171.745 622.343 171.81C622.262 172.062 622.247 172.33 622.299 172.589C622.352 172.849 622.47 173.09 622.643 173.29L622.763 174.42L622.173 173.93C622.099 173.328 621.803 172.776 621.343 172.38C620.903 171.99 619.003 171.15 618.143 171.38C618.024 171.407 617.914 171.466 617.826 171.55C617.738 171.635 617.675 171.742 617.643 171.86C617.523 172.31 617.803 172.86 618.423 173.42C619.173 174.099 620.133 174.498 621.143 174.55C621.43 174.551 621.714 174.5 621.983 174.4L622.833 175.1L623.123 177.82H621.323L622.023 191.92H627.883L628.573 177.82H627.073L627.253 176.14C627.27 176.106 627.279 176.068 627.279 176.03C627.279 175.992 627.27 175.954 627.253 175.92L627.443 174.04L628.673 172.74C628.901 172.819 629.141 172.86 629.383 172.86C630.393 172.806 631.353 172.407 632.103 171.73C632.723 171.18 633.003 170.61 632.883 170.17C632.855 170.052 632.795 169.944 632.708 169.859C632.621 169.774 632.512 169.715 632.393 169.69C631.839 169.608 631.272 169.677 630.753 169.89C630.763 169.768 630.746 169.645 630.703 169.53C630.659 169.415 630.584 169.315 630.488 169.239C630.391 169.163 630.275 169.115 630.153 169.1C629.344 169.112 628.555 169.359 627.883 169.81V169.76L628.413 164.66C628.428 164.611 628.428 164.559 628.413 164.51L628.663 162.04L629.893 160.74C630.123 160.815 630.362 160.855 630.603 160.86C631.615 160.807 632.576 160.404 633.323 159.72C633.943 159.18 634.223 158.61 634.103 158.17C634.072 158.051 634.009 157.942 633.921 157.856C633.833 157.769 633.723 157.709 633.603 157.68C632.455 157.646 631.328 157.998 630.403 158.68C630.155 158.893 629.952 159.155 629.808 159.449C629.663 159.743 629.58 160.063 629.563 160.39L628.703 161.29L629.173 156.8L629.293 156.68C629.555 156.493 629.797 156.278 630.013 156.04C630.166 155.876 630.303 155.699 630.423 155.51C630.646 155.582 630.879 155.619 631.113 155.62C632.123 155.566 633.083 155.167 633.833 154.49C634.453 153.94 634.733 153.38 634.613 152.93C634.584 152.811 634.521 152.703 634.433 152.618C634.344 152.533 634.233 152.475 634.113 152.45C633.253 152.19 631.353 153.03 630.903 153.45C630.688 153.644 630.509 153.874 630.373 154.13C630.283 154.075 630.186 154.034 630.083 154.01C629.865 153.972 629.642 153.972 629.423 154.01L629.983 148.62L631.253 147.67ZM629.563 149.57L629.333 149.22C629.431 149.159 629.524 149.092 629.613 149.02L629.563 149.57ZM628.053 164.09L627.563 163.67C627.63 163.045 627.455 162.419 627.073 161.92C626.719 161.527 626.308 161.19 625.853 160.92V158.7L626.853 157.35C627.003 157.365 627.154 157.365 627.303 157.35C627.727 157.343 628.145 157.251 628.533 157.08L628.723 157.3L628.053 164.09ZM622.793 169.46C623.149 169.605 623.529 169.683 623.913 169.69C624.061 169.688 624.208 169.671 624.353 169.64L625.353 170.96V172.54C624.689 171.963 623.874 171.588 623.003 171.46L622.793 169.46ZM625.353 170.15L624.723 169.32C624.754 168.707 624.554 168.104 624.163 167.63C624.513 167.952 624.916 168.213 625.353 168.4V170.15ZM625.853 155.98C626.077 156.146 626.318 156.287 626.573 156.4C626.527 156.603 626.51 156.812 626.523 157.02L625.853 157.9V155.98ZM624.723 148.27C624.822 148.162 624.916 148.048 625.003 147.93C625.137 147.751 625.254 147.56 625.353 147.36V149.36L624.723 148.55C624.735 148.457 624.735 148.363 624.723 148.27ZM621.853 149.64H622.063C622.793 149.618 623.495 149.358 624.063 148.9C624.18 148.909 624.297 148.909 624.413 148.9L625.413 150.19V151.64C625.288 151.514 625.121 151.439 624.943 151.43C623.994 151.568 623.132 152.061 622.533 152.81C622.333 153.068 622.188 153.365 622.108 153.681C622.027 153.998 622.012 154.327 622.063 154.65L621.413 155.71L620.943 151.22L621.853 149.64ZM624.723 159.53C624.702 158.945 624.472 158.388 624.073 157.96C623.317 157.323 622.418 156.877 621.453 156.66V156.47L622.383 154.95H622.623C623.259 154.931 623.871 154.703 624.363 154.3C624.464 154.528 624.592 154.742 624.743 154.94C624.923 155.171 625.121 155.388 625.333 155.59V160.11L624.723 159.53ZM623.603 167L623.823 167.26L623.563 167.07L623.603 167ZM626.153 173.43L626.873 172.52H627.173L626.873 175.36L626.393 174.81C626.445 174.349 626.362 173.884 626.153 173.47V173.43ZM627.423 170.18C627.334 170.243 627.251 170.314 627.173 170.39C626.951 170.626 626.78 170.905 626.668 171.209C626.556 171.513 626.507 171.836 626.523 172.16L625.873 172.98V168.55C626.072 168.605 626.277 168.635 626.483 168.64H626.693L627.473 169.91L627.423 170.18ZM625.853 150.18C625.878 150.141 625.891 150.096 625.891 150.05C625.891 150.004 625.878 149.959 625.853 149.92V147.77C626.1 148.035 626.375 148.273 626.673 148.48C626.546 148.797 626.495 149.14 626.523 149.48L625.853 150.36V150.18ZM626.853 139.87C627.001 139.901 627.152 139.918 627.303 139.92C627.578 139.92 627.851 139.88 628.113 139.8C627.954 140.937 628.18 142.095 628.753 143.09C629.07 143.573 629.549 143.928 630.103 144.09L629.863 146.37C629.376 146.445 628.903 146.597 628.463 146.82C627.735 146.104 626.826 145.599 625.833 145.36V141.3L626.853 139.87ZM625.323 145.45C625.213 145.51 625.123 145.6 625.063 145.71C625.063 145.71 625.063 145.79 625.013 145.84C624.954 145.829 624.893 145.829 624.833 145.84C624.347 145.855 623.874 146 623.463 146.26C622.731 145.73 621.857 145.43 620.953 145.4C620.831 145.415 620.716 145.463 620.619 145.539C620.522 145.615 620.447 145.715 620.403 145.83C620.233 146.26 620.463 146.83 621.013 147.46C621.195 147.649 621.389 147.826 621.593 147.99C621.412 148.401 621.353 148.856 621.423 149.3L620.773 150.3L620.043 143.35L620.973 141.84H621.183C621.813 141.815 622.421 141.606 622.933 141.24C623.228 141.334 623.534 141.385 623.843 141.39C624.056 141.393 624.268 141.366 624.473 141.31L625.253 142.01L625.323 145.45ZM619.573 138.55C619.842 138.547 620.108 138.503 620.363 138.42C620.325 138.716 620.364 139.017 620.476 139.294C620.589 139.57 620.77 139.814 621.003 140C620.698 140.489 620.578 141.07 620.663 141.64L620.013 142.64L619.593 138.64L619.573 138.55ZM620.953 158.55L620.553 158.19C620.548 158.088 620.531 157.988 620.503 157.89C620.628 158.166 620.797 158.419 621.003 158.64L620.953 158.55ZM621.703 159.23C622.327 159.722 623.089 160.009 623.883 160.05C624.096 160.05 624.308 160.019 624.513 159.96L625.023 160.43C624.734 160.288 624.415 160.216 624.093 160.22C623.972 160.223 623.854 160.26 623.752 160.325C623.65 160.39 623.567 160.482 623.513 160.59C623.303 161 623.513 161.59 623.953 162.27C624.322 162.764 624.784 163.182 625.313 163.5C624.704 163.811 624.153 164.223 623.683 164.72C623.686 164.743 623.686 164.767 623.683 164.79C623.561 164.794 623.442 164.83 623.338 164.895C623.234 164.96 623.15 165.052 623.093 165.16C623.019 165.367 622.996 165.588 623.026 165.806C623.055 166.023 623.137 166.231 623.263 166.41C623.257 166.46 623.257 166.51 623.263 166.56L623.133 166.77C622.926 166.645 622.708 166.538 622.483 166.45L621.703 159.23ZM621.703 169.46C621.686 169.189 621.625 168.922 621.523 168.67C621.738 168.84 621.965 168.994 622.203 169.13L622.313 170.13L621.703 169.46ZM623.213 173.93C623.773 174.522 624.498 174.933 625.293 175.11V177.79H623.613L623.213 173.93ZM625.793 177.79V175.15H625.963L626.743 176.05L626.563 177.81L625.793 177.79ZM627.613 172.49C627.881 172.456 628.143 172.389 628.393 172.29L627.543 173.19L627.613 172.49ZM627.013 168.25C627.06 167.927 627.042 167.599 626.961 167.283C626.881 166.968 626.739 166.671 626.543 166.41C626.393 166.227 626.222 166.063 626.033 165.92C626.296 165.689 626.537 165.435 626.753 165.16C627.014 164.834 627.193 164.45 627.273 164.04L627.933 164.59L627.473 169.01L627.013 168.25ZM627.893 154.58C627.862 154.52 627.826 154.463 627.783 154.41C627.217 153.814 626.537 153.338 625.783 153.01V151.12L626.783 149.77C626.933 149.785 627.084 149.785 627.233 149.77C627.786 149.754 628.328 149.606 628.813 149.34L629.383 150.23L628.993 153.99C628.643 154.186 628.312 154.414 628.003 154.67L627.893 154.58Z" fill="#272F39"/>
<path d="M639.512 159.55H663.392" stroke="#272F39" stroke-miterlimit="10"/>
<path d="M639.512 164.62H663.392" stroke="#272F39" stroke-miterlimit="10"/>
<path d="M639.512 169.68H663.392" stroke="#272F39" stroke-miterlimit="10"/>
<path d="M639.512 225.55H663.392" stroke="#272F39" stroke-miterlimit="10"/>
<path d="M639.512 230.62H663.392" stroke="#272F39" stroke-miterlimit="10"/>
<path d="M639.512 235.68H663.392" stroke="#272F39" stroke-miterlimit="10"/>
<path d="M609.882 207.54C610.861 207.794 611.871 207.905 612.882 207.87C612.882 207.87 612.422 206.46 612.382 206.38C611.902 205.38 610.382 203.75 609.192 203.92C608.99 203.952 608.797 204.026 608.626 204.138C608.455 204.25 608.31 204.396 608.199 204.568C608.089 204.74 608.016 204.933 607.985 205.135C607.954 205.337 607.967 205.543 608.022 205.74C608.181 206.158 608.43 206.536 608.751 206.847C609.073 207.158 609.459 207.395 609.882 207.54Z" fill="#272F39"/>
<path d="M638.141 200.19C636.921 200.06 635.471 201.74 635.021 202.74C635.021 202.83 634.531 204.25 634.561 204.25L633.821 205.11C633.351 205.7 632.821 206.37 632.281 207.11C631.693 207.928 631.159 208.783 630.681 209.67C630.129 210.652 629.67 211.683 629.311 212.75C629.311 212.39 629.311 211.38 629.311 211.3C629.171 210.22 628.251 208.19 627.041 207.97C626.84 207.939 626.634 207.951 626.437 208.004C626.241 208.058 626.058 208.153 625.9 208.282C625.742 208.411 625.614 208.572 625.523 208.755C625.432 208.937 625.38 209.136 625.371 209.34C625.388 209.781 625.501 210.213 625.701 210.607C625.902 211.001 626.185 211.346 626.531 211.62C627.385 212.172 628.315 212.596 629.291 212.88C628.95 213.971 628.679 215.084 628.481 216.21C628.361 216.87 628.271 217.54 628.181 218.21C628.181 217.89 628.181 217.62 628.181 217.58C628.041 216.49 627.181 214.47 625.921 214.25C625.72 214.217 625.514 214.228 625.317 214.28C625.119 214.333 624.935 214.426 624.777 214.554C624.618 214.683 624.489 214.843 624.396 215.025C624.304 215.207 624.251 215.406 624.241 215.61C624.26 216.052 624.374 216.485 624.576 216.878C624.778 217.272 625.063 217.617 625.411 217.89C626.232 218.436 627.133 218.851 628.081 219.12C628.081 219.38 628.021 219.64 627.981 219.89C627.841 221.13 627.701 222.36 627.521 223.56C627.461 223.99 627.381 224.4 627.311 224.82C627.311 224.54 627.311 224.31 627.311 224.27C627.171 223.18 626.311 221.16 625.051 220.94C624.849 220.909 624.643 220.921 624.446 220.974C624.249 221.028 624.065 221.122 623.906 221.252C623.748 221.381 623.619 221.542 623.526 221.724C623.434 221.906 623.381 222.106 623.371 222.31C623.387 222.751 623.5 223.183 623.702 223.576C623.905 223.968 624.191 224.311 624.541 224.58C625.337 225.12 626.215 225.528 627.141 225.79C627.051 226.22 626.961 226.64 626.851 227.05C626.741 227.46 626.721 227.59 626.621 227.87C626.521 228.15 626.451 228.41 626.361 228.67C626.181 229.18 625.991 229.67 625.801 230.2L625.401 231.2C625.471 230.78 625.581 229.95 625.581 229.88C625.57 228.913 625.308 227.966 624.821 227.13C624.836 227.024 624.836 226.916 624.821 226.81C624.797 226.608 624.73 226.413 624.626 226.238C624.521 226.063 624.38 225.913 624.213 225.797C624.045 225.681 623.855 225.601 623.655 225.564C623.455 225.526 623.249 225.532 623.051 225.58C621.861 225.89 621.111 227.98 621.051 229.07C621.051 229.14 621.051 229.84 621.121 230.29C621.061 230.03 621.011 229.78 620.941 229.51C620.821 228.99 620.681 228.51 620.531 227.91C620.451 227.64 620.371 227.37 620.281 227.09C620.191 226.81 620.091 226.54 620.001 226.26C619.761 225.62 619.491 224.98 619.211 224.34C620.17 224.148 621.094 223.811 621.951 223.34C622.321 223.096 622.632 222.773 622.862 222.394C623.092 222.015 623.235 221.591 623.281 221.15C623.286 220.947 623.248 220.744 623.17 220.557C623.091 220.369 622.974 220.199 622.826 220.06C622.678 219.92 622.502 219.813 622.31 219.746C622.118 219.679 621.914 219.653 621.711 219.67C620.491 219.8 619.431 221.74 619.211 222.82C619.211 222.89 619.121 223.68 619.091 224.11C618.911 223.73 618.741 223.35 618.551 222.96C618.011 221.86 617.421 220.77 616.841 219.67C616.661 219.34 616.491 219 616.311 218.67C617.306 218.469 618.264 218.114 619.151 217.62C619.519 217.375 619.829 217.053 620.06 216.677C620.291 216.3 620.438 215.879 620.491 215.44C620.496 215.236 620.458 215.034 620.38 214.845C620.301 214.657 620.184 214.487 620.036 214.347C619.889 214.206 619.713 214.099 619.521 214.03C619.329 213.962 619.124 213.935 618.921 213.95C617.691 214.08 616.631 216.03 616.411 217.11C616.411 217.19 616.291 218.32 616.281 218.61C615.901 217.87 615.521 217.13 615.181 216.38C614.712 215.378 614.311 214.346 613.981 213.29C614.979 213.081 615.939 212.724 616.831 212.23C617.201 211.988 617.513 211.667 617.745 211.29C617.977 210.913 618.122 210.49 618.171 210.05C618.177 209.846 618.14 209.642 618.063 209.453C617.985 209.264 617.868 209.094 617.72 208.953C617.572 208.813 617.395 208.705 617.202 208.637C617.01 208.569 616.805 208.543 616.601 208.56C615.381 208.69 614.321 210.64 614.091 211.71C614.091 211.8 613.971 213.02 613.961 213.24L613.901 213.06C613.594 211.991 613.386 210.897 613.281 209.79C613.211 209.18 613.181 208.59 613.161 208.02C614.155 207.922 615.129 207.675 616.051 207.29C616.441 207.091 616.783 206.809 617.053 206.463C617.322 206.117 617.513 205.717 617.611 205.29C617.639 205.088 617.624 204.882 617.567 204.685C617.511 204.489 617.413 204.307 617.281 204.151C617.148 203.996 616.985 203.87 616.8 203.781C616.616 203.693 616.415 203.645 616.211 203.64C614.981 203.64 613.721 205.45 613.381 206.5C613.381 206.55 613.241 207.15 613.151 207.59C613.151 207.33 613.151 207.06 613.151 206.81C613.151 205.89 613.211 205.03 613.271 204.28C613.271 203.85 613.351 203.47 613.391 203.11C614.228 202.563 614.973 201.888 615.601 201.11C615.859 200.75 616.034 200.337 616.114 199.902C616.193 199.466 616.175 199.018 616.061 198.59C615.993 198.398 615.885 198.222 615.744 198.074C615.603 197.927 615.433 197.81 615.244 197.733C615.056 197.655 614.853 197.619 614.649 197.625C614.445 197.632 614.245 197.681 614.061 197.77C612.971 198.34 612.681 200.53 612.861 201.62C612.861 201.71 613.291 203.14 613.311 203.13C613.311 203.47 613.211 203.85 613.171 204.25C613.101 205.01 613.021 205.86 613.001 206.79C612.962 207.79 612.985 208.792 613.071 209.79C613.155 210.912 613.343 212.023 613.631 213.11C613.441 212.81 612.871 211.97 612.821 211.92C612.101 211.09 610.221 209.92 609.091 210.38C608.906 210.466 608.741 210.59 608.606 210.744C608.472 210.898 608.372 211.078 608.311 211.273C608.251 211.468 608.232 211.673 608.256 211.876C608.28 212.079 608.347 212.274 608.451 212.45C608.707 212.812 609.039 213.112 609.425 213.33C609.81 213.548 610.239 213.678 610.681 213.71C611.699 213.701 612.709 213.543 613.681 213.24C613.997 214.342 614.388 215.421 614.851 216.47C615.111 217.08 615.401 217.69 615.691 218.3C615.521 218.04 615.361 217.81 615.331 217.78C614.611 216.95 612.741 215.78 611.611 216.25C611.425 216.335 611.259 216.458 611.124 216.612C610.988 216.765 610.887 216.945 610.825 217.14C610.764 217.336 610.744 217.541 610.768 217.745C610.791 217.948 610.857 218.144 610.961 218.32C611.218 218.68 611.551 218.978 611.936 219.194C612.322 219.411 612.75 219.539 613.191 219.57C614.179 219.574 615.161 219.422 616.101 219.12L616.451 219.82C617.001 220.93 617.561 222.04 618.081 223.14C618.261 223.52 618.431 223.91 618.601 224.3C618.441 224.07 618.311 223.88 618.281 223.85C617.561 223.02 615.691 221.85 614.561 222.32C614.375 222.405 614.209 222.528 614.074 222.682C613.938 222.835 613.837 223.015 613.775 223.21C613.714 223.405 613.694 223.611 613.718 223.815C613.741 224.018 613.807 224.214 613.911 224.39C614.168 224.75 614.501 225.048 614.886 225.264C615.272 225.481 615.7 225.609 616.141 225.64C617.101 225.649 618.055 225.507 618.971 225.22C619.131 225.62 619.291 226.03 619.431 226.42C619.571 226.81 619.621 226.95 619.691 227.23C619.761 227.51 619.841 227.78 619.921 228.05C620.041 228.58 620.181 229.12 620.291 229.63C620.371 229.99 620.431 230.33 620.511 230.63C620.331 230.24 619.971 229.49 619.931 229.43C619.341 228.5 617.671 227.05 616.481 227.35C616.278 227.405 616.09 227.504 615.929 227.639C615.767 227.774 615.637 227.942 615.547 228.132C615.457 228.322 615.409 228.529 615.406 228.739C615.403 228.949 615.446 229.158 615.531 229.35C615.732 229.74 616.014 230.082 616.36 230.353C616.705 230.624 617.104 230.818 617.531 230.92C618.525 231.079 619.537 231.079 620.531 230.92C620.651 231.49 620.751 232.05 620.851 232.58C620.991 233.37 621.101 234.1 621.201 234.77H620.001V248.08H625.291V234.84H624.591C624.801 234.36 625.021 233.84 625.241 233.31C625.461 232.78 625.701 232.17 625.931 231.57C626.914 231.794 627.925 231.871 628.931 231.8C629.369 231.735 629.787 231.574 630.155 231.329C630.523 231.083 630.833 230.759 631.061 230.38C631.15 230.197 631.2 229.997 631.207 229.794C631.214 229.591 631.179 229.388 631.102 229.199C631.026 229.011 630.91 228.84 630.764 228.699C630.617 228.558 630.442 228.449 630.251 228.38C629.091 227.98 627.311 229.31 626.661 230.19C626.661 230.19 626.271 230.85 626.051 231.19L626.331 230.45C626.511 229.94 626.681 229.45 626.871 228.88L627.111 228.07C627.201 227.8 627.261 227.5 627.331 227.22C627.491 226.55 627.621 225.87 627.731 225.22C628.642 225.581 629.603 225.8 630.581 225.87C631.023 225.872 631.461 225.776 631.862 225.59C632.263 225.403 632.618 225.13 632.901 224.79C633.018 224.622 633.098 224.432 633.136 224.232C633.175 224.031 633.171 223.825 633.124 223.626C633.078 223.427 632.991 223.24 632.868 223.077C632.745 222.914 632.589 222.779 632.411 222.68C631.321 222.12 629.361 223.16 628.581 223.93C628.581 223.93 628.041 224.6 627.771 224.93C627.841 224.52 627.901 224.1 627.961 223.68C628.111 222.46 628.221 221.22 628.341 219.99L628.461 218.86C629.421 219.239 630.432 219.472 631.461 219.55C631.904 219.547 632.34 219.448 632.741 219.26C633.141 219.071 633.496 218.799 633.781 218.46C633.897 218.293 633.977 218.104 634.016 217.904C634.054 217.704 634.05 217.499 634.004 217.301C633.958 217.103 633.87 216.917 633.748 216.755C633.625 216.592 633.469 216.458 633.291 216.36C632.201 215.79 630.291 216.83 629.461 217.6C629.401 217.66 628.691 218.55 628.521 218.79C628.611 217.96 628.701 217.13 628.831 216.32C628.991 215.225 629.228 214.142 629.541 213.08C630.501 213.457 631.512 213.69 632.541 213.77C632.983 213.772 633.421 213.676 633.822 213.49C634.223 213.303 634.578 213.03 634.861 212.69C634.978 212.522 635.058 212.332 635.096 212.132C635.135 211.931 635.131 211.725 635.085 211.526C635.038 211.327 634.951 211.14 634.828 210.977C634.705 210.814 634.549 210.679 634.371 210.58C633.281 210.02 631.321 211.05 630.541 211.83C630.481 211.89 629.711 212.83 629.541 213.03C629.541 212.97 629.541 212.9 629.591 212.84C629.925 211.78 630.353 210.753 630.871 209.77C631.151 209.22 631.451 208.72 631.751 208.23C632.633 208.701 633.58 209.038 634.561 209.23C635 209.275 635.444 209.224 635.862 209.081C636.28 208.938 636.662 208.705 636.981 208.4C637.115 208.247 637.216 208.067 637.277 207.872C637.337 207.677 637.356 207.472 637.333 207.27C637.309 207.067 637.244 206.872 637.14 206.696C637.036 206.52 636.897 206.368 636.731 206.25C635.731 205.57 633.641 206.39 632.731 207.08C632.731 207.08 632.251 207.54 631.941 207.86L632.361 207.21C632.871 206.44 633.361 205.76 633.861 205.16C634.121 204.83 634.371 204.53 634.611 204.25C635.603 204.26 636.592 204.119 637.541 203.83C637.952 203.668 638.324 203.419 638.63 203.1C638.935 202.78 639.168 202.398 639.311 201.98C639.359 201.785 639.367 201.583 639.333 201.385C639.3 201.187 639.226 200.998 639.116 200.83C639.006 200.662 638.863 200.519 638.695 200.408C638.527 200.298 638.339 200.224 638.141 200.19ZM624.611 233C624.321 233.66 624.051 234.26 623.791 234.82H622.001C621.881 234.12 621.741 233.34 621.571 232.49C621.461 231.91 621.321 231.3 621.181 230.66C621.759 230.438 622.321 230.174 622.861 229.87C623.601 230.507 624.426 231.038 625.311 231.45C625.001 232 624.821 232.53 624.611 233Z" fill="#272F39"/>
<path d="M631.701 208C631.701 208 632.091 206.57 632.111 206.47C632.261 205.39 631.911 203.2 630.801 202.66C630.613 202.572 630.409 202.525 630.202 202.523C629.995 202.52 629.79 202.562 629.601 202.645C629.411 202.729 629.242 202.852 629.104 203.006C628.966 203.16 628.863 203.342 628.801 203.54C628.698 203.969 628.692 204.416 628.782 204.848C628.872 205.28 629.056 205.687 629.321 206.04C630.011 206.809 630.814 207.47 631.701 208Z" fill="#272F39"/>
<path d="M132.532 65.724L100.852 68.5752L112.084 193.385L143.764 190.534L132.532 65.724Z" fill="white" stroke="#272F39" stroke-width="1.00404" stroke-miterlimit="10"/>
<path d="M128.142 70.5413L104.793 72.6005L106.852 95.9499L130.202 93.8907L128.142 70.5413Z" fill="#FF6969"/>
<path opacity="0.8" d="M128.142 70.5413L104.793 72.6005L106.852 95.9499L130.202 93.8907L128.142 70.5413Z" fill="white"/>
<path d="M130.842 101.146L107.492 103.205L109.551 126.554L132.901 124.495L130.842 101.146Z" fill="#FF6969"/>
<path opacity="0.5" d="M130.842 101.146L107.492 103.205L109.551 126.554L132.901 124.495L130.842 101.146Z" fill="white"/>
<path d="M133.541 131.76L110.191 133.819L112.251 157.169L135.6 155.11L133.541 131.76Z" fill="#FF6969"/>
<path opacity="0.2" d="M133.541 131.76L110.191 133.819L112.251 157.169L135.6 155.11L133.541 131.76Z" fill="white"/>
<path d="M136.24 162.365L112.891 164.424L114.95 187.773L138.299 185.714L136.24 162.365Z" fill="#FF6969"/>
<path d="M168.788 69.5127L137.887 62.5318L110.384 184.274L141.285 191.255L168.788 69.5127Z" fill="white" stroke="#272F39" stroke-miterlimit="10"/>
<path d="M164.553 73.1964L141.582 68.0396L136.425 91.0108L159.396 96.1676L164.553 73.1964Z" fill="#FF6969"/>
<path opacity="0.8" d="M164.553 73.1964L141.582 68.0396L136.425 91.0108L159.396 96.1676L164.553 73.1964Z" fill="white"/>
<path d="M157.02 102.905L134.156 97.7394L128.991 120.603L151.855 125.768L157.02 102.905Z" fill="#FF6969"/>
<path opacity="0.5" d="M157.02 102.905L134.156 97.7394L128.991 120.603L151.855 125.768L157.02 102.905Z" fill="white"/>
<path d="M150.243 132.874L127.379 127.709L122.214 150.573L145.078 155.738L150.243 132.874Z" fill="#FF6969"/>
<path opacity="0.2" d="M150.243 132.874L127.379 127.709L122.214 150.573L145.078 155.738L150.243 132.874Z" fill="white"/>
<path d="M143.477 162.845L120.613 157.68L115.448 180.544L138.312 185.709L143.477 162.845Z" fill="#FF6969"/>
<path d="M200.939 83.2065L173.355 67.6258L111.972 176.298L139.556 191.879L200.939 83.2065Z" fill="white" stroke="#272F39" stroke-miterlimit="10"/>
<path d="M195.175 85.0417L174.766 73.5136L163.237 93.9228L183.647 105.451L195.175 85.0417Z" fill="#FF6969"/>
<path opacity="0.8" d="M195.175 85.0417L174.766 73.5136L163.237 93.9228L183.647 105.451L195.175 85.0417Z" fill="white"/>
<path d="M180.062 111.802L159.652 100.273L148.124 120.683L168.533 132.211L180.062 111.802Z" fill="#FF6969"/>
<path opacity="0.5" d="M180.062 111.802L159.652 100.273L148.124 120.683L168.533 132.211L180.062 111.802Z" fill="white"/>
<path d="M164.94 138.547L144.531 127.018L133.003 147.428L153.412 158.956L164.94 138.547Z" fill="#FF6969"/>
<path opacity="0.2" d="M164.94 138.547L144.531 127.018L133.003 147.428L153.412 158.956L164.94 138.547Z" fill="white"/>
<path d="M149.835 165.305L129.426 153.777L117.898 174.186L138.307 185.714L149.835 165.305Z" fill="#FF6969"/>
<path d="M235.719 114.114L215.641 89.6089L119.099 168.712L139.177 193.217L235.719 114.114Z" fill="white" stroke="#272F39" stroke-miterlimit="10"/>
<path d="M229.668 113.739L214.812 95.6082L196.681 110.464L211.537 128.595L229.668 113.739Z" fill="#FF6969"/>
<path opacity="0.8" d="M229.668 113.739L214.812 95.6082L196.681 110.464L211.537 128.595L229.668 113.739Z" fill="white"/>
<path d="M205.903 133.203L191.047 115.072L172.916 129.928L187.772 148.059L205.903 133.203Z" fill="#FF6969"/>
<path opacity="0.5" d="M205.903 133.203L191.047 115.072L172.916 129.928L187.772 148.059L205.903 133.203Z" fill="white"/>
<path d="M182.129 152.683L167.273 134.552L149.142 149.408L163.998 167.539L182.129 152.683Z" fill="#FF6969"/>
<path opacity="0.2" d="M182.129 152.683L167.273 134.552L149.142 149.408L163.998 167.539L182.129 152.683Z" fill="white"/>
<path d="M158.372 172.154L143.516 154.023L125.385 168.879L140.241 187.01L158.372 172.154Z" fill="#FF6969"/>
<path d="M541.879 336.84L555.499 394L615.589 379.67L541.879 336.84ZM556.769 356.58L590.289 376L562.999 382.55L556.769 356.58Z" fill="#FF6969" stroke="#272F39" stroke-miterlimit="10"/>
<path d="M640.848 387.69L626.918 330.69L566.918 345.34L640.848 387.69ZM625.848 368.03L592.218 348.75L619.508 342.09L625.848 368.03Z" fill="#FF6969" stroke="#272F39" stroke-miterlimit="10"/>
<path d="M521.338 305.572L388.383 337.222L409.225 424.775L542.18 393.125L521.338 305.572Z" fill="white" stroke="#272F39" stroke-miterlimit="10"/>
<path d="M502.489 321.37L506.119 320.51L519.549 376.95L419.129 400.86L405.699 344.41L482.599 326.1" fill="white"/>
<path d="M502.489 321.37L506.119 320.51L519.549 376.95L419.129 400.86L405.699 344.41L482.599 326.1" stroke="#272F39" stroke-miterlimit="10"/>
<path d="M518.893 310.548L393.215 340.465L412.146 419.993L537.824 390.075L518.893 310.548Z" stroke="#272F39" stroke-miterlimit="10"/>
<path d="M536.023 382.263L514.145 387.472L515.999 395.264L537.878 390.056L536.023 382.263Z" stroke="#272F39" stroke-miterlimit="10"/>
<path d="M514.898 390.08L536.418 384.96" stroke="#272F39" stroke-miterlimit="10"/>
<path d="M515.52 392.72L537.14 387.57" stroke="#272F39" stroke-miterlimit="10"/>
<path d="M411.93 368.62L433.44 363.5L441.01 395.32" stroke="#272F39" stroke-miterlimit="10"/>
<path d="M509.219 319.63L514.519 318.36" stroke="#272F39" stroke-miterlimit="10"/>
<path d="M522.539 375.6L527.849 374.34" stroke="#272F39" stroke-miterlimit="10"/>
<path d="M512.23 319.22L525.56 375.19" stroke="#272F39" stroke-miterlimit="10"/>
<path d="M435.191 362.78L440.491 361.51" stroke="#272F39" stroke-miterlimit="10"/>
<path d="M437.691 362.8L445.121 394.03" stroke="#272F39" stroke-miterlimit="10"/>
<path d="M488.475 329.236L441.926 340.317L445.712 356.223L492.261 345.142L488.475 329.236Z" stroke="#272F39" stroke-miterlimit="10"/>
<path d="M446.641 339.19L450.281 354.51" stroke="#272F39" stroke-miterlimit="10"/>
<path d="M483.262 330.48L486.902 345.8" stroke="#272F39" stroke-miterlimit="10"/>
<path d="M492.891 347.79L493.591 350.74" stroke="#272F39" stroke-miterlimit="10"/>
<path d="M446.051 358.95L446.751 361.89" stroke="#272F39" stroke-miterlimit="10"/>
<path d="M446.031 360.19L492.871 349.04" stroke="#272F39" stroke-miterlimit="10"/>
<path d="M438.94 344.76C438.774 344.059 438.404 343.424 437.877 342.933C437.349 342.443 436.688 342.12 435.978 342.005C435.267 341.89 434.538 341.989 433.883 342.289C433.228 342.589 432.677 343.076 432.299 343.689C431.921 344.302 431.734 345.013 431.76 345.732C431.787 346.452 432.026 347.148 432.448 347.731C432.87 348.315 433.455 348.76 434.13 349.011C434.805 349.262 435.539 349.307 436.24 349.14C437.178 348.917 437.99 348.33 438.496 347.509C439.003 346.688 439.162 345.699 438.94 344.76Z" stroke="#272F39" stroke-miterlimit="10"/>
<path d="M484.602 325.66L499.742 322.05" stroke="#272F39" stroke-miterlimit="10"/>
<path d="M421.609 405.1L433.049 402.38" stroke="#272F39" stroke-miterlimit="10"/>
<path d="M422.23 407.74L433.68 405.02" stroke="#272F39" stroke-miterlimit="10"/>
<path d="M422.859 410.38L434.299 407.66" stroke="#272F39" stroke-miterlimit="10"/>
<path d="M467.27 363.85L478.71 361.13" stroke="#272F39" stroke-miterlimit="10"/>
<path d="M467.898 366.49L479.338 363.77" stroke="#272F39" stroke-miterlimit="10"/>
<path d="M468.531 369.13L479.971 366.41" stroke="#272F39" stroke-miterlimit="10"/>
<path d="M445.512 380.5L456.952 377.78" stroke="#272F39" stroke-miterlimit="10"/>
<path d="M446.141 383.14L457.581 380.42" stroke="#272F39" stroke-miterlimit="10"/>
<path d="M446.77 385.78L458.21 383.06" stroke="#272F39" stroke-miterlimit="10"/>
<path d="M416.621 347.7L428.061 344.98" stroke="#272F39" stroke-miterlimit="10"/>
<path d="M417.25 350.34L428.69 347.62" stroke="#272F39" stroke-miterlimit="10"/>
<path d="M417.879 352.98L429.319 350.26" stroke="#272F39" stroke-miterlimit="10"/>
<path d="M515.042 314.851L378.992 327.855L387.556 417.446L523.606 404.442L515.042 314.851Z" fill="white" stroke="#272F39" stroke-miterlimit="10"/>
<path d="M494.179 327.93L497.889 327.57L503.409 385.33L400.649 395.15L395.129 337.39L473.829 329.87" fill="white"/>
<path d="M494.179 327.93L497.889 327.57L503.409 385.33L400.649 395.15L395.129 337.39L473.829 329.87" stroke="#272F39" stroke-miterlimit="10"/>
<path d="M511.944 319.435L383.34 331.728L391.118 413.107L519.722 400.814L511.944 319.435Z" stroke="#272F39" stroke-miterlimit="10"/>
<path d="M519.005 392.83L496.617 394.969L497.379 402.943L519.767 400.803L519.005 392.83Z" stroke="#272F39" stroke-miterlimit="10"/>
<path d="M496.98 397.69L519.01 395.59" stroke="#272F39" stroke-miterlimit="10"/>
<path d="M497.238 400.39L519.358 398.28" stroke="#272F39" stroke-miterlimit="10"/>
<path d="M397.961 362.23L419.971 360.12L423.081 392.68" stroke="#272F39" stroke-miterlimit="10"/>
<path d="M501.078 327.13L506.508 326.61" stroke="#272F39" stroke-miterlimit="10"/>
<path d="M506.559 384.4L511.979 383.88" stroke="#272F39" stroke-miterlimit="10"/>
<path d="M504.129 327.14L509.599 384.42" stroke="#272F39" stroke-miterlimit="10"/>
<path d="M421.809 359.64L427.229 359.13" stroke="#272F39" stroke-miterlimit="10"/>
<path d="M424.281 360.02L427.331 391.97" stroke="#272F39" stroke-miterlimit="10"/>
<path d="M479.234 333.754L431.602 338.306L433.157 354.582L480.79 350.029L479.234 333.754Z" stroke="#272F39" stroke-miterlimit="10"/>
<path d="M436.398 337.87L437.898 353.54" stroke="#272F39" stroke-miterlimit="10"/>
<path d="M473.871 334.29L475.371 349.96" stroke="#272F39" stroke-miterlimit="10"/>
<path d="M481.02 352.77L481.31 355.79" stroke="#272F39" stroke-miterlimit="10"/>
<path d="M433.09 357.35L433.38 360.36" stroke="#272F39" stroke-miterlimit="10"/>
<path d="M432.898 358.58L480.838 354.01" stroke="#272F39" stroke-miterlimit="10"/>
<path d="M428.001 342.32C427.925 341.608 427.64 340.935 427.182 340.384C426.724 339.834 426.114 339.431 425.428 339.227C424.741 339.023 424.01 339.026 423.326 339.236C422.641 339.446 422.034 339.854 421.581 340.408C421.128 340.963 420.849 341.639 420.779 342.351C420.709 343.064 420.851 343.781 421.188 344.413C421.525 345.045 422.041 345.563 422.671 345.902C423.302 346.242 424.018 346.387 424.731 346.32C425.21 346.275 425.675 346.136 426.099 345.91C426.523 345.683 426.898 345.376 427.202 345.003C427.506 344.631 427.734 344.202 427.871 343.742C428.008 343.281 428.052 342.798 428.001 342.32Z" stroke="#272F39" stroke-miterlimit="10"/>
<path d="M475.871 329.7L491.361 328.22" stroke="#272F39" stroke-miterlimit="10"/>
<path d="M402.512 399.69L414.222 398.57" stroke="#272F39" stroke-miterlimit="10"/>
<path d="M402.77 402.39L414.48 401.27" stroke="#272F39" stroke-miterlimit="10"/>
<path d="M403.031 405.09L414.741 403.97" stroke="#272F39" stroke-miterlimit="10"/>
<path d="M453.441 365.14L465.141 364.02" stroke="#272F39" stroke-miterlimit="10"/>
<path d="M453.691 367.84L465.401 366.72" stroke="#272F39" stroke-miterlimit="10"/>
<path d="M453.949 370.54L465.659 369.42" stroke="#272F39" stroke-miterlimit="10"/>
<path d="M429.578 378.63L441.288 377.51" stroke="#272F39" stroke-miterlimit="10"/>
<path d="M429.84 381.33L441.55 380.21" stroke="#272F39" stroke-miterlimit="10"/>
<path d="M430.102 384.03L441.812 382.91" stroke="#272F39" stroke-miterlimit="10"/>
<path d="M405.5 342.15L417.21 341.03" stroke="#272F39" stroke-miterlimit="10"/>
<path d="M405.762 344.85L417.462 343.73" stroke="#272F39" stroke-miterlimit="10"/>
<path d="M406.012 347.55L417.722 346.44" stroke="#272F39" stroke-miterlimit="10"/>
<path d="M82.3816 315.78C82.3816 315.78 55.2116 328.78 54.2816 332.45C53.3516 336.12 57.3716 373.21 57.3716 379.08C57.3716 384.95 56.1316 384.95 54.2816 393.29C52.4316 401.63 50.2816 406.87 54.9016 409.96C59.5216 413.05 69.7216 418.96 89.7916 418.96C109.862 418.96 140.442 409 142.002 404.4C143.562 399.8 142.622 370.13 142.312 364.57C142.002 359.01 133.312 322.26 131.192 319.48C129.072 316.7 125.022 316.09 116.682 314.85C108.342 313.61 82.3816 315.78 82.3816 315.78Z" fill="#FF6969" stroke="#272F39" stroke-miterlimit="10"/>
<path d="M78.06 371.67C78.06 371.67 65.4 394.52 59.53 405.33C53.66 416.14 52.12 426.94 54.9 439.91C57.68 452.88 71.57 461.84 85.47 461.84C93.4222 461.928 101.34 460.781 108.94 458.44C108.94 458.44 115.11 464 127.77 460.29C140.43 456.58 146.61 444.24 145.38 427.87C144.15 411.5 142.6 380.93 142.29 375.38C141.98 369.83 135.19 370.43 129.94 372.9C124.69 375.37 105.54 404.09 105.54 404.09C105.54 404.09 96.54 376.3 92.88 372.6C89.22 368.9 87 366.11 78.06 371.67Z" fill="#272F39" stroke="#272F39" stroke-miterlimit="10"/>
<path d="M108.001 442.38C108.001 442.38 102.131 451.96 97.1914 459.68C92.2514 467.4 85.7714 474.5 87.9314 477.89C90.0914 481.28 95.0314 484.07 100.591 484.07C106.151 484.07 109.241 482.53 110.781 478.51C112.321 474.49 114.781 457.82 116.651 453.19C118.521 448.56 113.261 439.3 108.001 442.38Z" fill="#FF6969" stroke="#272F39" stroke-miterlimit="10"/>
<path d="M98.1515 479.47C91.6515 478.28 90.0615 473.83 89.8015 470.58C87.9115 473.67 86.8815 476.23 87.9415 477.89C90.1015 481.29 95.0415 484.07 100.602 484.07C106.162 484.07 109.252 482.53 110.792 478.51C111.055 477.776 111.279 477.028 111.462 476.27C109.616 477.751 107.466 478.806 105.165 479.359C102.864 479.912 100.469 479.95 98.1515 479.47Z" fill="white" stroke="#272F39" stroke-miterlimit="10"/>
<path d="M119.751 370.13C119.751 370.13 113.881 417.06 111.411 428.49C108.941 439.92 106.781 444.85 106.781 445.78C106.781 446.71 113.261 455.35 117.281 455.66C121.301 455.97 124.691 447.32 130.281 437.13C135.871 426.94 141.391 406.87 145.101 396.68C148.811 386.49 149.101 373.21 145.101 368.27C141.101 363.33 130.551 355.61 119.751 370.13Z" fill="#272F39" stroke="#272F39" stroke-miterlimit="10"/>
<path d="M104.14 353.47C105.72 346.07 110.08 325.92 112.54 314.53C101.93 314.15 82.3803 315.78 82.3803 315.78C82.3803 315.78 76.7703 318.46 70.5703 321.72C73.5703 331.29 79.4903 347.63 86.4403 355.35C96.6103 366.65 101.88 364 104.14 353.47Z" fill="#272F39" stroke="#272F39" stroke-miterlimit="10"/>
<path d="M101.839 350.36C103.349 343.3 107.949 322.03 109.589 314.47C98.6794 314.42 82.3794 315.78 82.3794 315.78C82.3794 315.78 78.2194 317.78 73.1094 320.4C74.8994 326.55 80.4894 344.31 87.3194 351.91C95.6594 361.17 99.9994 359 101.839 350.36Z" fill="white" stroke="#272F39" stroke-miterlimit="10"/>
<path d="M54.9414 296.42C54.9414 296.42 56.1614 299.1 56.1614 307.42C56.1614 315.74 52.0014 319.85 62.7514 322.29C73.5014 324.73 79.5914 320.58 80.3214 314.48C81.0514 308.38 76.1714 302.76 77.3914 298.86C78.6114 294.96 83.4914 285.68 82.7614 282.99L82.0014 280.31L54.9414 296.42Z" fill="#272F39" stroke="#272F39" stroke-linecap="round" stroke-linejoin="round"/>
<path d="M102.53 334.25L100.82 313L104 312.76C108.64 311.76 115 309.59 115 306.17C115 302.75 113.78 295.43 113.54 289.08C113.35 284.543 111.725 280.184 108.9 276.63C107.19 274.19 105.73 269.31 105.73 269.31L103.73 266.87L78.6098 282.75C78.2723 286.027 77.4499 289.235 76.1698 292.27C74.1698 296.42 71.7798 297.88 71.7798 297.88C71.7798 297.88 66.4098 292.51 64.6998 297.64C62.9898 302.77 65.9198 307.16 70.5598 309.35C75.1998 311.54 76.6598 307.16 76.6598 307.16L81.5398 336" fill="white"/>
<path d="M102.53 334.25L100.82 313L104 312.76C108.64 311.76 115 309.59 115 306.17C115 302.75 113.78 295.43 113.54 289.08C113.35 284.543 111.725 280.184 108.9 276.63C107.19 274.19 105.73 269.31 105.73 269.31L103.73 266.87L78.6098 282.75C78.2723 286.027 77.4499 289.235 76.1698 292.27C74.1698 296.42 71.7798 297.88 71.7798 297.88C71.7798 297.88 66.4098 292.51 64.6998 297.64C62.9898 302.77 65.9198 307.16 70.5598 309.35C75.1998 311.54 76.6598 307.16 76.6598 307.16L81.5398 336" stroke="#272F39" stroke-linecap="round" stroke-linejoin="round"/>
<path d="M113 294C110.499 296.585 107.077 298.077 103.48 298.15" stroke="#272F39" stroke-linecap="round" stroke-linejoin="round"/>
<path d="M96.2384 287.862C96.8331 287.545 96.8524 286.419 96.2814 285.346C95.7104 284.274 94.7654 283.661 94.1706 283.978C93.5759 284.294 93.5566 285.42 94.1276 286.493C94.6986 287.565 95.6436 288.178 96.2384 287.862Z" fill="#272F39"/>
<path d="M108.19 277.79C108.76 278.86 108.74 279.99 108.19 280.31C107.64 280.63 106.65 280.01 106.08 278.94C105.51 277.87 105.53 276.74 106.08 276.43C106.63 276.12 107.62 276.72 108.19 277.79Z" fill="#272F39"/>
<path d="M98.63 280.06C93.0363 281.969 87.8281 284.861 83.25 288.6L84.25 290.6L85.71 291.33C85.71 291.33 88.62 295 92 294.71C95.38 294.42 101.76 290.56 102.25 287.63C102.74 284.7 100.05 280.06 100.05 280.06H98.63Z" stroke="#272F39" stroke-linecap="round" stroke-linejoin="round"/>
<path d="M98.63 280.06C93.0363 281.969 87.8281 284.861 83.25 288.6L84.25 290.6L85.71 291.33C86.0215 291.684 86.3556 292.018 86.71 292.33C86.71 292.33 85.11 289.84 85.41 289.01C86.88 285.01 100.41 280.8 100.41 280.8L100.29 280.36L100.12 280.05L98.63 280.06Z" fill="#272F39" stroke="#272F39" stroke-linecap="round" stroke-linejoin="round"/>
<path d="M100.621 280.46L103.751 278.35C104.797 280.517 106.298 282.434 108.151 283.97C110.831 285.92 113.271 286.16 113.271 287.38C113.271 288.6 108.881 290.56 108.881 290.56" stroke="#272F39" stroke-linecap="round" stroke-linejoin="round"/>
<path d="M83.2508 288.61L70.8008 297.15L71.5308 298.61L84.2308 290.56L83.2508 288.61Z" fill="#272F39" stroke="#272F39" stroke-linecap="round" stroke-linejoin="round"/>
<path d="M87.3984 283.48C89.5969 280.702 92.7132 278.798 96.1884 278.11" stroke="#272F39" stroke-linecap="round" stroke-linejoin="round"/>
<path d="M103.27 275.42C103.27 275.42 103.51 272.98 106.68 272.25" stroke="#272F39" stroke-linecap="round" stroke-linejoin="round"/>
<path d="M100.822 313C98.2782 313.251 95.7103 313.003 93.2617 312.27C90.1757 311.273 87.1676 310.05 84.2617 308.61C84.2617 308.61 90.3617 313 93.0417 314.71C95.7217 316.42 100.612 317.4 100.612 317.4L100.822 313Z" fill="#272F39" stroke="#272F39" stroke-linecap="round" stroke-linejoin="round"/>
<path d="M113.76 273.72C112.986 273.014 112.03 272.539 111 272.35C109.8 272.35 103.53 276.16 103 276.88C102.47 277.6 103.7 278.35 103.7 278.35C103.7 278.35 109.02 274.53 109.99 274.29C110.96 274.05 113.76 273.72 113.76 273.72Z" fill="#272F39" stroke="#272F39" stroke-linecap="round" stroke-linejoin="round"/>
<path d="M98.6289 280.06L103.049 277.39L103.749 278.39C105.09 277.207 106.551 276.168 108.109 275.29C111.029 273.58 112.779 273.29 113.759 273.76C114.739 274.23 116.199 278.39 114.759 281.32C113.945 283.014 112.678 284.451 111.099 285.47" stroke="#272F39" stroke-linecap="round" stroke-linejoin="round"/>
<path d="M49.0799 303C49.0799 303 55.9099 299.33 71.0799 289.57C86.2499 279.81 119.41 262.48 119.41 262.48C119.41 262.48 105 264.43 97.9299 262.23C90.8599 260.03 84.4699 251.75 79.8299 251.5C75.1899 251.25 49.0799 266.15 49.0799 270.79C49.0799 275.43 52.4899 292.02 52.9799 292.79C53.4699 293.56 46.8799 297.64 49.0799 303Z" fill="white" stroke="#272F39" stroke-linecap="round" stroke-linejoin="round"/>
<path d="M79.8486 284.2C77.9486 284.71 75.8986 285.2 73.7286 285.68C66.5668 287.254 59.6107 289.65 52.9986 292.82C53.1686 293.68 46.9386 297.76 49.0886 303.01C49.0886 303.01 55.9186 299.34 71.0886 289.58C73.5586 288 76.5686 286.13 79.8486 284.2Z" fill="white" stroke="#272F39" stroke-linecap="round" stroke-linejoin="round"/>
<path d="M97.9009 262.24C97.2384 262.029 96.5903 261.775 95.9609 261.48C79.1409 270.21 59.0509 283.65 51.9609 288.48C52.2309 289.71 52.4709 290.74 52.6609 291.48C59.0009 287.14 82.0009 271.65 99.8709 262.72C99.2052 262.6 98.5473 262.44 97.9009 262.24Z" fill="#272F39"/>
<path d="M65.3997 338.94C67.0082 344.075 68.8773 349.125 70.9997 354.07C73.4697 359.32 75.6297 363.95 75.6297 363.95C75.6297 363.95 65.9997 364.26 61.9997 367C57.9997 369.74 47.5697 382 47.5697 382C47.5697 382 47.1797 371.66 47.1797 361.78C47.1797 351.9 47.4897 338.31 49.6497 334.91C51.8097 331.51 62.9297 327.19 62.9297 327.19" fill="#FF6969"/>
<path d="M65.3997 338.94C67.0082 344.075 68.8773 349.125 70.9997 354.07C73.4697 359.32 75.6297 363.95 75.6297 363.95C75.6297 363.95 65.9997 364.26 61.9997 367C57.9997 369.74 47.5697 382 47.5697 382C47.5697 382 47.1797 371.66 47.1797 361.78C47.1797 351.9 47.4897 338.31 49.6497 334.91C51.8097 331.51 62.9297 327.19 62.9297 327.19" stroke="#272F39" stroke-miterlimit="10"/>
<path d="M116.66 314.85C116.66 314.85 132.1 313 135.49 315.78C138.88 318.56 156.49 349.13 156.49 349.13C156.49 349.13 140.74 344.19 137.97 346.66C135.2 349.13 124.97 361.48 124.97 361.48L119.1 327.48" fill="#FF6969"/>
<path d="M116.66 314.85C116.66 314.85 132.1 313 135.49 315.78C138.88 318.56 156.49 349.13 156.49 349.13C156.49 349.13 140.74 344.19 137.97 346.66C135.2 349.13 124.97 361.48 124.97 361.48L119.1 327.48" stroke="#272F39" stroke-miterlimit="10"/>
<path d="M138.909 339C129.529 339.3 125.119 345.9 123.129 350.73L124.999 361.48C124.999 361.48 135.189 349.13 137.999 346.66C140.809 344.19 156.519 349.13 156.519 349.13C156.519 349.13 154.649 345.88 152.019 341.42C147.874 339.68 143.402 338.855 138.909 339Z" fill="#272F39" stroke="#272F39" stroke-miterlimit="10"/>
<path d="M124.702 452C124.982 452.73 129.162 463.63 133.332 470.49C137.662 477.6 137.662 478.83 135.802 482.85C133.942 486.87 127.162 489.02 121.292 486.85C115.422 484.68 112.642 483.14 112.642 477.85C112.642 472.56 111.102 454.7 111.102 454.7C111.102 454.7 111.412 446.36 116.662 445.43C121.912 444.5 124.662 451.93 124.662 451.93" fill="#FF6969"/>
<path d="M124.702 452C124.982 452.73 129.162 463.63 133.332 470.49C137.662 477.6 137.662 478.83 135.802 482.85C133.942 486.87 127.162 489.02 121.292 486.85C115.422 484.68 112.642 483.14 112.642 477.85C112.642 472.56 111.102 454.7 111.102 454.7C111.102 454.7 111.412 446.36 116.662 445.43C121.912 444.5 124.662 451.93 124.662 451.93" stroke="#272F39" stroke-miterlimit="10"/>
<path d="M127.881 483.3C121.621 483.67 115.101 478.69 112.621 476.57C112.621 477.07 112.621 477.52 112.621 477.89C112.621 483.14 115.401 484.69 121.271 486.89C127.141 489.09 133.931 486.89 135.781 482.89C136.971 480.32 137.391 478.89 136.411 476.33C135.001 479.4 132.361 483 127.881 483.3Z" fill="white" stroke="#272F39" stroke-miterlimit="10"/>
<path d="M87.3197 365.18C87.3197 365.18 80.2197 364.88 77.1297 373.52C75.1297 379.12 74.0397 387.11 75.5897 391.74C77.1397 396.37 108.32 449.49 108.94 450.41C109.56 451.33 111.1 454.74 111.1 454.74C111.1 454.74 114.19 451.65 115.73 451.65C117.27 451.65 124.73 451.96 124.73 451.96C125.26 449.813 125.152 447.557 124.42 445.47C123.18 442.07 118.24 433.74 117.62 430.03C117 426.32 107.13 383.71 104.96 378.46C102.79 373.21 98.1297 364.88 87.3197 365.18Z" fill="#272F39" stroke="#272F39" stroke-miterlimit="10"/>
<path d="M50.2698 378.77C50.2698 378.77 45.8798 389.31 52.5898 390.27C59.2998 391.23 69.8498 376.36 71.2898 374.45C72.7298 372.54 57.3798 369.65 57.3798 369.65L50.2698 378.77Z" fill="#272F39" stroke="#272F39" stroke-miterlimit="10"/>
<path d="M75.589 364C75.589 364 119.129 381.29 122.829 383.45C126.529 385.61 134.829 397.35 136.109 401.36C137.389 405.37 140.739 417.42 141.049 418.36C141.359 419.3 135.799 429.17 135.489 430.09C135.179 431.01 131.489 435.03 130.249 435.03C129.009 435.03 126.539 427.93 125.919 423.03C125.299 418.13 122.829 394.93 122.829 394.93C122.829 394.93 96.5891 389.37 84.2291 389.37C71.8691 389.37 57.999 383.09 55.519 380.62C53.039 378.15 52.739 374.76 54.279 373.52C55.819 372.28 63.549 361.79 75.589 364Z" fill="white" stroke="#272F39" stroke-miterlimit="10"/>
<path d="M130.25 434.97V419.53" stroke="#272F39" stroke-miterlimit="10"/>
<path d="M132.719 433.12L134.879 417.68" stroke="#272F39" stroke-miterlimit="10"/>
<path d="M136.73 427.25L139.51 417.37" stroke="#272F39" stroke-miterlimit="10"/>
<path d="M93.1898 417.06C92.9517 419.324 92.1317 421.487 90.8098 423.34C89.3508 425.45 87.775 427.476 86.0898 429.41C86.0898 429.41 88.5598 432.19 92.5698 428.49C96.5798 424.79 99.0598 417.06 99.6698 415.21C100.28 413.36 97.1999 411.2 93.1898 417.06Z" fill="white" stroke="#272F39" stroke-miterlimit="10"/>
<path d="M128.081 349.75C128.081 349.75 108.941 387.11 104.001 396.06C99.0613 405.01 99.0613 403.17 96.9013 407.8C95.7913 410.17 90.4413 421.49 90.8113 423.34C91.1813 425.19 91.9313 436.34 91.9313 436.34C91.9313 436.34 93.0413 439.67 93.7813 436.71C94.5213 433.75 94.5213 426.33 94.5213 426.33L96.0013 422.23C96.0013 422.23 97.8513 434.46 97.8513 435.57C97.8513 436.68 99.3413 439.27 100.451 438.16C101.561 437.05 100.081 426.67 100.081 426.67L101.561 420.75C101.561 420.75 103.411 433.75 104.561 435.2C105.711 436.65 106.421 438.2 107.161 435.94C107.901 433.68 106.001 426.3 106.001 426.3L106.741 419.63C106.741 419.63 108.221 430.38 109.741 431.86C111.261 433.34 111.971 432.6 111.971 430.01C111.971 427.42 110.111 418.89 110.111 418.89L110.201 400.08C110.201 400.08 135.831 373.83 144.481 364.88C153.131 355.93 161.371 353.99 156.481 346.24C151.831 338.87 137.351 339.86 128.081 349.75Z" fill="white" stroke="#272F39" stroke-miterlimit="10"/>
<path d="M47 381.07C47.3638 382.428 47.8079 383.764 48.33 385.07C48.33 385.07 55.55 371.51 59.57 368.73C63.59 365.95 75.57 363.95 75.57 363.95C75.57 363.95 74.51 361.26 73.57 359.28C72.57 359.21 70.38 359.05 69.23 359.03C54.75 358.71 49 375.14 47 381.07Z" fill="#272F39" stroke="#272F39" stroke-miterlimit="10"/>
</svg>
