<svg width="500" height="500" viewBox="0 0 500 500" fill="none" xmlns="http://www.w3.org/2000/svg">
<path d="M221.468 89.7489C170.205 98.9924 119.073 134.697 88.2342 177.082C61.6834 213.577 53.2454 257.475 58.331 297.297C64.2058 343.507 87.5262 386.559 124.94 413.24C134.777 420.262 144.167 427.228 155.559 432.272C202.289 452.997 247.506 409.074 274.22 408.74C296.71 408.456 307.223 431.833 327.866 436.251C383.596 448.18 447.414 370.554 448.488 313.018C449.684 246.027 348.445 66.8516 221.468 89.7489Z" fill="#FF6969"/>
<path opacity="0.8" d="M221.468 89.7489C170.205 98.9924 119.073 134.697 88.2342 177.082C61.6834 213.577 53.2454 257.475 58.331 297.297C64.2058 343.507 87.5262 386.559 124.94 413.24C134.777 420.262 144.167 427.228 155.559 432.272C202.289 452.997 247.506 409.074 274.22 408.74C296.71 408.456 307.223 431.833 327.866 436.251C383.596 448.18 447.414 370.554 448.488 313.018C449.684 246.027 348.445 66.8516 221.468 89.7489Z" fill="white"/>
<path d="M73.5762 289.478C76.058 290.015 81.6155 288.754 81.6236 288.754C81.6317 288.754 79.6789 285.344 79.5324 285.149C77.7911 282.83 73.0229 279.388 69.9959 280.454C69.4875 280.643 69.025 280.938 68.639 281.319C68.2531 281.701 67.9525 282.159 67.7571 282.666C67.5618 283.172 67.4761 283.714 67.5057 284.255C67.5354 284.797 67.6797 285.326 67.9292 285.808C68.8975 287.85 71.4606 289.063 73.5762 289.478Z" fill="#FF6969"/>
<path d="M130.275 279.298C130.332 279.298 130.543 275.385 130.527 275.14C130.348 272.244 128.306 266.759 125.165 265.962C124.639 265.843 124.094 265.836 123.566 265.942C123.037 266.047 122.537 266.263 122.097 266.574C121.657 266.886 121.288 267.287 121.013 267.75C120.738 268.214 120.564 268.73 120.502 269.266C120.161 271.528 121.658 273.92 123.171 275.466C124.945 277.256 130.275 279.298 130.275 279.298Z" fill="#FF6969"/>
<path d="M142.839 255.701C139.584 256.002 136.736 261.096 136.101 263.928C136.052 264.172 135.637 268.086 135.694 268.078H135.759C135.304 268.891 134.816 269.705 134.303 270.698C133.375 272.463 132.342 274.473 131.365 276.735C130.284 279.16 129.347 281.646 128.558 284.181C127.656 287.014 127.011 289.922 126.63 292.871C126.626 292.906 126.626 292.941 126.63 292.977C126.459 292.041 125.889 289.445 125.816 289.25C124.88 286.508 121.463 281.756 118.216 281.813C117.678 281.836 117.15 281.973 116.668 282.214C116.186 282.455 115.76 282.795 115.418 283.212C115.076 283.629 114.826 284.114 114.685 284.634C114.543 285.154 114.512 285.698 114.595 286.231C114.864 288.509 116.939 290.413 118.802 291.512C120.91 292.741 126.174 293.286 126.597 293.326C126.285 296.321 126.176 299.333 126.272 302.342C126.272 304.108 126.402 305.882 126.524 307.656C126.345 306.842 126.182 306.134 126.15 306.028C125.214 303.286 121.796 298.542 118.558 298.599C118.014 298.616 117.48 298.748 116.991 298.987C116.502 299.225 116.069 299.565 115.721 299.984C115.374 300.402 115.119 300.89 114.974 301.414C114.829 301.939 114.797 302.488 114.88 303.026C115.149 305.296 117.232 307.208 119.095 308.298C120.958 309.389 125.466 309.926 126.654 310.089C126.711 310.772 126.752 311.456 126.809 312.131C127.077 315.386 127.354 318.64 127.525 321.895C127.59 323.018 127.606 324.133 127.631 325.248C127.476 324.54 127.338 323.938 127.305 323.848C126.378 321.106 122.96 316.362 119.713 316.411C119.181 316.44 118.661 316.58 118.186 316.822C117.711 317.063 117.291 317.401 116.953 317.814C116.616 318.226 116.368 318.704 116.225 319.218C116.083 319.732 116.049 320.269 116.125 320.797C116.394 323.075 118.468 324.987 120.332 326.078C122.195 327.168 126.272 327.705 127.655 327.843C127.655 328.982 127.655 330.13 127.574 331.236C127.517 331.993 127.517 332.725 127.411 333.474C127.305 334.223 127.248 334.971 127.159 335.704C126.947 337.111 126.736 338.568 126.5 339.943C126.337 340.895 126.166 341.798 125.995 342.718C125.946 341.587 125.808 339.39 125.775 339.202C125.236 336.713 124.064 334.404 122.374 332.498C122.326 332.22 122.253 331.948 122.154 331.684C121.982 331.173 121.705 330.704 121.34 330.308C120.974 329.911 120.53 329.596 120.035 329.382C119.54 329.169 119.005 329.062 118.466 329.069C117.927 329.076 117.396 329.196 116.906 329.422C114.001 330.862 113.147 336.647 113.57 339.512C113.57 339.683 114.075 341.481 114.384 342.62C114.091 341.977 113.814 341.359 113.513 340.708C112.911 339.414 112.276 338.137 111.601 336.77L110.543 334.792C110.201 334.125 109.729 333.466 109.363 332.791C108.419 331.253 107.386 329.739 106.312 328.242C107.443 327.713 111.438 325.801 112.821 324.174C114.205 322.546 115.604 320.105 115.132 317.827C115.04 317.292 114.835 316.783 114.532 316.333C114.228 315.883 113.833 315.502 113.371 315.216C112.91 314.93 112.393 314.745 111.855 314.673C111.317 314.602 110.77 314.645 110.25 314.8C107.158 315.784 105.433 321.374 105.425 324.271C105.425 324.45 105.645 326.533 105.791 327.672C105.14 326.769 104.497 325.874 103.806 324.987C101.82 322.432 99.7373 319.902 97.6461 317.371L95.7583 315.036C96.1652 314.849 100.958 312.668 102.553 310.829C103.977 309.202 105.335 306.761 104.864 304.482C104.771 303.947 104.566 303.438 104.263 302.988C103.959 302.538 103.564 302.158 103.103 301.872C102.641 301.586 102.125 301.401 101.587 301.329C101.049 301.257 100.502 301.3 99.9814 301.455C96.8893 302.44 95.1643 308.03 95.148 310.927C95.148 311.146 95.4817 314.133 95.6037 314.889C94.2204 313.181 92.8534 311.456 91.5841 309.706C89.8481 307.349 88.2689 304.881 86.8565 302.318C87.0437 302.228 92.056 299.974 93.6915 298.095C95.1155 296.467 96.4744 293.986 96.0024 291.748C95.9101 291.213 95.7054 290.704 95.4019 290.254C95.0983 289.804 94.7029 289.423 94.2416 289.137C93.7803 288.851 93.2636 288.666 92.7256 288.595C92.1875 288.523 91.6404 288.566 91.1203 288.721C88.0282 289.697 86.3032 295.296 86.2951 298.192C86.2951 298.38 86.5392 300.633 86.6856 301.74L86.5066 301.797C85.1576 299.188 84.0412 296.465 83.1705 293.66C82.6741 292.114 82.2836 290.609 81.9418 289.144C82.9183 288.819 87.361 287.281 89.0291 285.751C90.6972 284.221 92.235 281.975 92.0153 279.697C91.9809 279.16 91.8337 278.635 91.5834 278.158C91.3331 277.681 90.9852 277.262 90.5624 276.928C90.1396 276.594 89.6512 276.353 89.1291 276.221C88.607 276.088 88.0628 276.066 87.5319 276.158C84.3504 276.792 82.0232 282.163 81.6977 285.035C81.6977 285.198 81.6977 286.809 81.6977 287.981C81.5513 287.313 81.3885 286.63 81.2583 285.987C80.7782 283.546 80.4446 281.349 80.2412 279.372C80.111 278.241 80.0134 277.224 79.932 276.263C80.7457 275.45 83.8784 272.105 84.6351 270.022C85.3919 267.939 85.7499 265.189 84.4968 263.269C84.2223 262.831 83.8619 262.453 83.4374 262.157C83.013 261.862 82.5331 261.656 82.0268 261.551C81.5205 261.446 80.9983 261.445 80.4914 261.547C79.9846 261.649 79.5037 261.853 79.0776 262.146C76.547 264.172 76.9539 270.014 77.9873 272.724C78.0768 272.96 79.8995 276.459 79.9401 276.418L79.989 276.361C80.0459 277.289 80.1192 278.273 80.2168 279.355C80.4202 281.341 80.6643 283.587 81.0956 286.011C81.5325 288.628 82.1221 291.218 82.8613 293.766C83.6748 296.627 84.7423 299.41 86.051 302.082L86.1079 302.171C85.4488 301.488 83.5367 299.641 83.3739 299.511C81.0874 297.737 75.6113 295.662 72.9424 297.501C72.5048 297.818 72.139 298.224 71.869 298.692C71.5991 299.16 71.4309 299.68 71.3756 300.218C71.3203 300.755 71.3791 301.298 71.5481 301.812C71.7172 302.325 71.9926 302.797 72.3565 303.197C73.8293 304.938 76.6203 305.385 78.7766 305.271C81.2176 305.133 85.9045 302.684 86.2788 302.489C87.6749 305.168 89.2489 307.75 90.9901 310.219C91.9991 311.667 93.0569 313.091 94.1309 314.507C93.5451 313.937 93.0162 313.425 92.9348 313.36C90.6402 311.594 85.164 309.519 82.4951 311.35C82.0575 311.667 81.6918 312.073 81.4218 312.541C81.1518 313.009 80.9837 313.529 80.9284 314.067C80.8731 314.604 80.9319 315.147 81.1009 315.661C81.2699 316.174 81.5454 316.646 81.9093 317.046C83.3902 318.795 86.173 319.243 88.3293 319.121C90.4856 318.998 94.5622 316.989 95.6525 316.443C96.0675 316.981 96.4662 317.526 96.9056 318.071C98.9317 320.65 100.974 323.222 102.878 325.793C103.553 326.704 104.18 327.624 104.815 328.543C104.294 328.03 103.846 327.607 103.773 327.55C101.479 325.777 96.0106 323.702 93.3335 325.541C92.8948 325.857 92.5281 326.262 92.2573 326.731C91.9866 327.199 91.818 327.719 91.7627 328.257C91.7073 328.795 91.7665 329.339 91.9363 329.852C92.106 330.366 92.3825 330.837 92.7477 331.236C94.2286 332.986 97.0114 333.433 99.1758 333.319C101.34 333.206 105.01 331.375 106.279 330.732C106.898 331.692 107.524 332.652 108.086 333.612C108.452 334.271 108.851 334.882 109.184 335.573L110.201 337.567C110.803 338.861 111.43 340.187 111.983 341.464C112.374 342.351 112.732 343.198 113.098 344.052C112.439 343.141 111.105 341.383 110.974 341.253C108.981 339.154 103.887 336.273 100.958 337.681C100.479 337.929 100.058 338.275 99.7222 338.697C99.3862 339.118 99.1428 339.606 99.0077 340.128C98.8726 340.65 98.8489 341.194 98.9382 341.726C99.0274 342.258 99.2276 342.765 99.5257 343.214C100.722 345.167 103.407 346.029 105.555 346.241C107.931 346.469 112.748 344.841 113.35 344.613C113.944 346.029 114.506 347.413 114.978 348.731C115.857 350.96 116.605 353.027 117.272 354.874L119.323 354.459C118.599 352.531 117.744 350.391 116.76 348.007C116.166 346.566 115.498 345.037 114.791 343.474C116.159 342.577 117.474 341.602 118.729 340.553C120.714 341.985 125.303 343.206 125.889 343.352C125.605 344.866 125.32 346.33 125.019 347.714C124.563 349.846 124.107 351.782 123.668 353.58L125.873 353.133C126.207 351.579 126.557 349.878 126.898 348.096C127.199 346.558 127.484 344.915 127.761 343.214C128.387 343.214 133.457 343.214 135.654 342.246C137.631 341.359 139.901 339.683 140.414 337.453C140.551 336.932 140.578 336.387 140.491 335.855C140.405 335.323 140.207 334.815 139.912 334.364C139.617 333.913 139.23 333.529 138.777 333.237C138.323 332.945 137.814 332.751 137.281 332.668C134.026 332.27 130.153 336.623 128.933 339.251C128.859 339.406 128.265 341.172 127.907 342.294C128.013 341.603 128.127 340.936 128.233 340.22C128.452 338.812 128.623 337.404 128.819 335.883C128.884 335.142 128.949 334.402 129.022 333.653C129.095 332.904 129.095 332.107 129.144 331.334C129.201 329.528 129.144 327.697 129.144 325.85C130.373 326.037 134.767 326.663 136.858 326.053C138.949 325.443 141.447 324.165 142.285 322.034C142.501 321.54 142.61 321.006 142.606 320.467C142.601 319.928 142.484 319.396 142.26 318.906C142.037 318.416 141.713 317.978 141.309 317.621C140.906 317.264 140.431 316.996 139.917 316.834C136.801 315.955 132.277 319.666 130.666 322.074C130.568 322.221 129.608 324.084 129.103 325.117C129.055 324.011 129.014 322.904 128.924 321.781C128.68 318.527 128.33 315.272 127.989 312.017C127.891 311.024 127.802 310.023 127.704 309.031C128.143 309.104 133.343 309.926 135.694 309.275C137.777 308.697 140.275 307.387 141.122 305.255C141.337 304.761 141.446 304.227 141.441 303.687C141.436 303.148 141.318 302.616 141.094 302.125C140.87 301.635 140.545 301.197 140.14 300.841C139.736 300.484 139.26 300.217 138.746 300.056C135.613 299.177 131.089 302.896 129.527 305.337C129.404 305.516 128.029 308.193 127.712 308.892C127.5 306.695 127.313 304.507 127.216 302.342C127.069 299.421 127.116 296.494 127.354 293.579C127.557 293.579 132.985 294.49 135.385 293.823C137.468 293.253 139.966 291.935 140.812 289.803C141.028 289.309 141.137 288.776 141.133 288.237C141.128 287.698 141.011 287.166 140.788 286.676C140.564 286.185 140.24 285.747 139.837 285.39C139.433 285.033 138.959 284.765 138.445 284.604C135.32 283.725 130.804 287.435 129.193 289.844C129.087 289.998 128.037 292.041 127.566 293.025L127.395 292.968C127.71 290.04 128.285 287.146 129.112 284.319C129.551 282.765 130.055 281.292 130.576 279.876C131.569 280.145 136.126 281.316 138.355 280.958C140.585 280.6 143.115 279.583 144.189 277.557C144.458 277.09 144.625 276.572 144.679 276.036C144.734 275.5 144.676 274.958 144.508 274.446C144.34 273.935 144.066 273.464 143.704 273.065C143.342 272.666 142.9 272.347 142.407 272.13C139.405 270.909 134.498 274.099 132.643 276.32C132.545 276.442 131.65 277.785 131.016 278.761C131.26 278.127 131.504 277.459 131.748 276.857C132.676 274.587 133.66 272.561 134.547 270.779C135.06 269.762 135.548 268.859 136.012 268.021C137.118 267.777 141.594 266.727 143.335 265.409C145.076 264.091 146.923 261.991 146.94 259.713C146.965 259.172 146.876 258.631 146.677 258.127C146.479 257.623 146.176 257.166 145.789 256.787C145.401 256.408 144.938 256.116 144.43 255.929C143.921 255.742 143.379 255.664 142.839 255.701Z" fill="#FF6969"/>
<path d="M437.102 289.478C434.661 290.015 429.062 288.754 429.062 288.754C429.062 288.754 430.999 285.344 431.154 285.149C432.895 282.83 437.663 279.388 440.69 280.454C441.203 280.638 441.671 280.929 442.062 281.308C442.453 281.688 442.758 282.146 442.958 282.653C443.157 283.16 443.246 283.704 443.219 284.248C443.191 284.792 443.048 285.324 442.798 285.808C441.805 287.85 439.234 289.063 437.102 289.478Z" fill="#FF6969"/>
<path d="M380.417 279.298C380.36 279.298 380.157 275.385 380.173 275.14C380.344 272.244 382.386 266.759 385.535 265.962C386.061 265.843 386.606 265.836 387.134 265.942C387.663 266.047 388.163 266.263 388.603 266.574C389.043 266.886 389.412 267.287 389.687 267.75C389.961 268.214 390.135 268.73 390.197 269.266C390.531 271.528 389.034 273.92 387.529 275.466C385.747 277.256 380.425 279.298 380.417 279.298Z" fill="#FF6969"/>
<path d="M367.856 255.701C371.111 256.002 373.967 261.096 374.594 263.928C374.651 264.172 375.066 268.086 375.009 268.078H374.935C375.399 268.891 375.887 269.705 376.392 270.698C377.319 272.463 378.353 274.473 379.337 276.735C380.415 279.161 381.353 281.647 382.145 284.181C383.039 287.016 383.685 289.923 384.073 292.871C384.069 292.906 384.069 292.941 384.073 292.977C384.244 292.041 384.814 289.445 384.887 289.25C385.823 286.508 389.24 281.756 392.487 281.813C393.025 281.837 393.552 281.975 394.033 282.216C394.515 282.458 394.94 282.798 395.282 283.215C395.623 283.632 395.873 284.116 396.016 284.635C396.158 285.155 396.189 285.699 396.108 286.231C395.839 288.509 393.764 290.413 391.893 291.512C389.785 292.741 384.521 293.286 384.106 293.326C384.421 296.334 384.535 299.36 384.447 302.383C384.407 304.149 384.309 305.922 384.195 307.696C384.366 306.883 384.529 306.175 384.561 306.069C385.497 303.327 388.915 298.583 392.161 298.64C392.7 298.663 393.228 298.8 393.71 299.041C394.192 299.282 394.618 299.623 394.959 300.04C395.301 300.457 395.551 300.941 395.693 301.461C395.835 301.981 395.865 302.526 395.782 303.058C395.514 305.328 393.439 307.241 391.567 308.331C389.696 309.421 385.196 309.958 384.008 310.121L383.862 312.163C383.593 315.418 383.316 318.673 383.137 321.928C383.08 323.051 383.056 324.165 383.032 325.28C383.186 324.572 383.325 323.97 383.357 323.881C384.293 321.138 387.71 316.395 390.957 316.443C391.495 316.468 392.022 316.606 392.504 316.847C392.985 317.089 393.411 317.429 393.752 317.846C394.094 318.262 394.344 318.746 394.486 319.266C394.628 319.786 394.659 320.329 394.578 320.862C394.309 323.14 392.234 325.052 390.363 326.143C388.491 327.233 384.431 327.77 383.04 327.908C383.04 329.048 383.04 330.195 383.121 331.301C383.178 332.058 383.186 332.791 383.284 333.539C383.381 334.288 383.455 335.036 383.536 335.769C383.748 337.176 383.959 338.633 384.203 340.008C384.358 340.96 384.529 341.863 384.7 342.783C384.748 341.652 384.895 339.455 384.927 339.268C385.464 336.778 386.633 334.469 388.321 332.563C388.368 332.285 388.442 332.013 388.54 331.749C388.712 331.238 388.99 330.769 389.355 330.373C389.72 329.976 390.165 329.661 390.66 329.448C391.155 329.234 391.689 329.127 392.228 329.134C392.768 329.141 393.299 329.261 393.789 329.487C396.702 330.927 397.556 336.713 397.125 339.577C397.125 339.748 396.62 341.546 396.311 342.685C396.596 342.042 396.872 341.424 397.182 340.773C397.776 339.479 398.41 338.202 399.086 336.835L400.152 334.857C400.493 334.19 400.965 333.531 401.332 332.856C402.275 331.318 403.301 329.804 404.375 328.307C403.244 327.778 399.257 325.866 397.825 324.239C396.392 322.611 395.05 320.17 395.522 317.892C395.614 317.361 395.817 316.855 396.117 316.408C396.418 315.961 396.809 315.582 397.266 315.297C397.723 315.011 398.235 314.825 398.769 314.751C399.302 314.676 399.846 314.715 400.363 314.865C403.455 315.849 405.18 321.44 405.188 324.336C405.188 324.515 404.961 326.598 404.814 327.738C405.465 326.834 406.116 325.939 406.808 325.052C408.793 322.497 410.876 319.967 412.959 317.436C413.602 316.622 414.22 315.874 414.855 315.101C414.448 314.914 409.656 312.733 408.053 310.894C406.637 309.267 405.278 306.826 405.75 304.547C405.842 304.016 406.045 303.511 406.345 303.064C406.646 302.617 407.037 302.238 407.494 301.952C407.951 301.667 408.463 301.48 408.997 301.406C409.53 301.332 410.074 301.371 410.591 301.52C413.683 302.505 415.408 308.095 415.417 310.992C415.417 311.211 415.091 314.198 414.969 314.954C416.352 313.246 417.711 311.521 418.989 309.771C420.725 307.415 422.304 304.947 423.716 302.383C423.529 302.293 418.509 300.039 416.873 298.16C415.457 296.532 414.098 294.051 414.57 291.813C414.661 291.278 414.865 290.768 415.169 290.317C415.472 289.866 415.867 289.485 416.329 289.199C416.791 288.913 417.308 288.728 417.846 288.657C418.385 288.585 418.932 288.63 419.452 288.786C422.544 289.763 424.269 295.361 424.278 298.257C424.278 298.445 424.034 300.699 423.887 301.805L424.066 301.862C425.415 299.253 426.531 296.53 427.402 293.725C427.899 292.179 428.281 290.674 428.631 289.209C427.654 288.884 423.204 287.346 421.544 285.816C419.884 284.286 418.289 282.041 418.549 279.762C418.584 279.225 418.731 278.7 418.981 278.223C419.231 277.746 419.579 277.327 420.002 276.993C420.425 276.66 420.913 276.418 421.435 276.286C421.958 276.153 422.502 276.131 423.033 276.223C426.214 276.857 428.541 282.228 428.875 285.1C428.875 285.263 428.875 286.874 428.875 288.046C429.021 287.378 429.184 286.695 429.314 286.052C429.794 283.611 430.087 281.414 430.331 279.437C430.462 278.306 430.551 277.289 430.633 276.328C429.819 275.515 426.686 272.17 425.938 270.087C425.189 268.004 424.823 265.254 426.068 263.334C426.346 262.872 426.719 262.474 427.161 262.166C427.603 261.857 428.106 261.646 428.635 261.544C429.165 261.443 429.71 261.454 430.235 261.578C430.76 261.701 431.253 261.933 431.682 262.26C434.213 264.286 433.798 270.128 432.764 272.838C432.675 273.074 430.86 276.573 430.82 276.532L430.771 276.475C430.714 277.403 430.641 278.387 430.543 279.469C430.34 281.455 430.096 283.701 429.664 286.125C429.223 288.742 428.634 291.331 427.899 293.88C427.057 296.704 425.968 299.449 424.644 302.082L424.595 302.171C425.254 301.488 427.158 299.641 427.321 299.511C429.615 297.737 435.083 295.662 437.761 297.501C438.198 297.818 438.564 298.224 438.834 298.692C439.104 299.16 439.272 299.68 439.327 300.218C439.383 300.755 439.324 301.298 439.155 301.812C438.986 302.325 438.71 302.797 438.346 303.197C436.865 304.938 434.083 305.385 431.918 305.271C429.477 305.133 424.798 302.684 424.424 302.489C423.026 305.171 421.452 307.759 419.713 310.235C418.704 311.683 417.646 313.107 416.564 314.523C417.158 313.954 417.687 313.441 417.768 313.376C420.063 311.61 425.531 309.535 428.208 311.366C428.645 311.683 429.011 312.089 429.281 312.557C429.551 313.025 429.719 313.545 429.775 314.083C429.83 314.621 429.771 315.164 429.602 315.677C429.433 316.19 429.158 316.662 428.794 317.062C427.313 318.811 424.53 319.259 422.365 319.137C420.201 319.015 416.133 317.005 415.042 316.46C414.619 316.997 414.229 317.542 413.789 318.087C411.763 320.667 409.721 323.238 407.817 325.809C407.141 326.72 406.507 327.64 405.872 328.559C406.401 328.047 406.84 327.624 406.922 327.567C409.208 325.793 414.684 323.718 417.353 325.557C417.792 325.873 418.159 326.279 418.429 326.747C418.7 327.215 418.869 327.735 418.924 328.273C418.979 328.811 418.92 329.355 418.75 329.868C418.581 330.382 418.304 330.854 417.939 331.253C416.458 333.002 413.675 333.45 411.519 333.336C409.363 333.222 405.677 331.391 404.415 330.748C403.797 331.708 403.17 332.668 402.609 333.629C402.243 334.288 401.844 334.898 401.511 335.59L400.493 337.583C399.891 338.877 399.265 340.203 398.703 341.481C398.313 342.368 397.955 343.214 397.597 344.068C398.256 343.157 399.59 341.399 399.72 341.269C401.714 339.17 406.808 336.289 409.729 337.697C410.208 337.945 410.63 338.29 410.967 338.711C411.303 339.133 411.548 339.62 411.684 340.142C411.82 340.664 411.844 341.209 411.755 341.741C411.667 342.273 411.467 342.781 411.169 343.23C409.973 345.183 407.288 346.046 405.131 346.257C402.764 346.485 397.947 344.858 397.344 344.63C396.75 346.046 396.181 347.429 395.668 348.747C394.789 350.977 394.041 353.043 393.374 354.89L391.323 354.475C392.055 352.547 392.902 350.407 393.886 348.023C394.488 346.583 395.156 345.053 395.855 343.491C394.489 342.595 393.177 341.62 391.925 340.569C389.94 342.002 385.351 343.222 384.757 343.369C385.041 344.882 385.334 346.347 385.635 347.73C386.091 349.862 386.547 351.798 386.978 353.597L384.781 353.149C384.439 351.595 384.089 349.894 383.748 348.112C383.455 346.574 383.17 344.931 382.893 343.23C382.267 343.23 377.197 343.23 374.992 342.262C373.023 341.375 370.753 339.699 370.24 337.469C370.102 336.948 370.074 336.403 370.16 335.87C370.246 335.338 370.443 334.829 370.739 334.378C371.034 333.926 371.422 333.542 371.875 333.251C372.329 332.959 372.84 332.766 373.373 332.685C376.587 332.286 380.493 336.639 381.722 339.268C381.795 339.422 382.389 341.188 382.747 342.311C382.633 341.619 382.519 340.952 382.413 340.236C382.202 338.828 382.031 337.42 381.835 335.899C381.77 335.158 381.697 334.418 381.632 333.669C381.567 332.921 381.551 332.123 381.51 331.35C381.453 329.544 381.51 327.713 381.51 325.866C380.273 326.053 375.887 326.68 373.788 326.069C371.689 325.459 369.207 324.182 368.361 322.05C368.147 321.556 368.038 321.022 368.043 320.484C368.048 319.945 368.166 319.414 368.389 318.924C368.612 318.434 368.936 317.996 369.339 317.639C369.742 317.282 370.215 317.013 370.729 316.85C373.853 315.972 378.377 319.682 379.98 322.09C380.086 322.237 381.038 324.1 381.551 325.134C381.6 324.027 381.64 322.92 381.73 321.798C381.974 318.543 382.324 315.288 382.657 312.033C382.763 311.041 382.853 310.04 382.95 309.047C382.511 309.12 377.303 309.942 374.96 309.291C372.877 308.713 370.379 307.403 369.532 305.271C369.317 304.778 369.208 304.244 369.212 303.705C369.216 303.166 369.334 302.634 369.557 302.144C369.781 301.654 370.105 301.216 370.508 300.859C370.912 300.502 371.386 300.234 371.9 300.072C375.025 299.185 379.549 302.896 381.152 305.312C381.274 305.491 382.649 308.168 382.966 308.868C383.17 306.671 383.357 304.482 383.455 302.318C383.6 299.397 383.556 296.47 383.325 293.554C383.121 293.554 377.694 294.466 375.285 293.798C373.202 293.229 370.704 291.911 369.866 289.779C369.649 289.285 369.539 288.751 369.543 288.212C369.546 287.673 369.664 287.14 369.887 286.65C370.111 286.159 370.435 285.721 370.84 285.364C371.244 285.007 371.719 284.74 372.234 284.579C375.35 283.701 379.874 287.411 381.486 289.819C381.591 289.974 382.633 292.016 383.113 293.001L383.292 292.944C382.977 290.016 382.402 287.121 381.575 284.295C381.136 282.74 380.631 281.268 380.11 279.852C379.11 280.12 374.553 281.292 372.323 280.934C370.094 280.576 367.563 279.559 366.489 277.533C366.221 277.065 366.055 276.546 366 276.01C365.946 275.474 366.005 274.932 366.174 274.42C366.343 273.908 366.618 273.437 366.98 273.039C367.343 272.64 367.786 272.322 368.279 272.105C371.282 270.885 376.18 274.075 378.044 276.296C378.149 276.418 379.045 277.761 379.671 278.737C379.427 278.102 379.183 277.435 378.931 276.833C378.011 274.563 377.027 272.537 376.131 270.755C375.619 269.738 375.139 268.834 374.675 267.996C373.56 267.752 369.093 266.702 367.311 265.384C365.529 264.066 363.723 261.967 363.698 259.688C363.677 259.144 363.771 258.602 363.975 258.097C364.179 257.592 364.487 257.136 364.88 256.759C365.273 256.383 365.742 256.093 366.255 255.911C366.768 255.729 367.314 255.657 367.856 255.701Z" fill="#FF6969"/>
<path d="M395.429 228.047C408.344 224.956 416.308 211.981 413.217 199.066C410.126 186.151 397.15 178.187 384.236 181.278C371.321 184.369 363.357 197.345 366.448 210.259C369.539 223.174 382.515 231.138 395.429 228.047Z" stroke="#272F39" stroke-miterlimit="10"/>
<path d="M394.771 203.474C406.764 200.745 414.274 188.81 411.545 176.817C408.815 164.823 396.881 157.313 384.887 160.043C372.894 162.772 365.384 174.707 368.114 186.7C370.843 198.693 382.778 206.203 394.771 203.474Z" stroke="#272F39" stroke-miterlimit="10"/>
<path d="M394.782 248.401C406.776 245.671 414.286 233.737 411.556 221.743C408.827 209.75 396.892 202.24 384.899 204.969C372.906 207.699 365.396 219.633 368.125 231.627C370.854 243.62 382.789 251.13 394.782 248.401Z" stroke="#272F39" stroke-miterlimit="10"/>
<path d="M371.702 242.561C385.758 240.302 395.322 227.076 393.063 213.02C390.804 198.964 377.578 189.4 363.521 191.659C349.465 193.918 339.902 207.144 342.161 221.201C344.42 235.257 357.646 244.82 371.702 242.561Z" stroke="#272F39" stroke-miterlimit="10"/>
<path d="M418.335 242.248C432.201 239.021 440.826 225.165 437.599 211.298C434.373 197.432 420.516 188.807 406.65 192.034C392.784 195.261 384.159 209.117 387.386 222.984C390.612 236.85 404.469 245.475 418.335 242.248Z" stroke="#272F39" stroke-miterlimit="10"/>
<path d="M420.299 216.648C434.013 212.826 442.033 198.611 438.212 184.897C434.39 171.183 420.175 163.163 406.461 166.984C392.746 170.806 384.727 185.021 388.548 198.735C392.369 212.449 406.585 220.469 420.299 216.648Z" stroke="#272F39" stroke-miterlimit="10"/>
<path d="M372.726 216.861C386.571 213.545 395.107 199.633 391.79 185.788C388.474 171.943 374.562 163.408 360.717 166.724C346.872 170.04 338.337 183.952 341.653 197.797C344.969 211.642 358.881 220.177 372.726 216.861Z" stroke="#272F39" stroke-miterlimit="10"/>
<path d="M369.753 194.243C371.362 194.243 372.666 192.939 372.666 191.33C372.666 189.721 371.362 188.417 369.753 188.417C368.144 188.417 366.84 189.721 366.84 191.33C366.84 192.939 368.144 194.243 369.753 194.243Z" fill="#272F39" stroke="#272F39" stroke-miterlimit="10"/>
<path d="M392.826 180.646C392.826 180.07 392.655 179.507 392.335 179.028C392.015 178.549 391.56 178.176 391.028 177.955C390.496 177.735 389.91 177.677 389.345 177.789C388.78 177.902 388.261 178.179 387.853 178.587C387.446 178.994 387.168 179.513 387.056 180.078C386.944 180.643 387.001 181.229 387.222 181.761C387.442 182.293 387.816 182.748 388.295 183.068C388.774 183.389 389.337 183.559 389.913 183.559C390.686 183.559 391.427 183.253 391.973 182.706C392.519 182.16 392.826 181.419 392.826 180.646Z" fill="#272F39" stroke="#272F39" stroke-miterlimit="10"/>
<path d="M369.753 220.224C371.362 220.224 372.666 218.92 372.666 217.311C372.666 215.703 371.362 214.398 369.753 214.398C368.144 214.398 366.84 215.703 366.84 217.311C366.84 218.92 368.144 220.224 369.753 220.224Z" fill="#272F39" stroke="#272F39" stroke-miterlimit="10"/>
<path d="M409.343 194.243C410.952 194.243 412.256 192.939 412.256 191.33C412.256 189.721 410.952 188.417 409.343 188.417C407.734 188.417 406.43 189.721 406.43 191.33C406.43 192.939 407.734 194.243 409.343 194.243Z" fill="#272F39" stroke="#272F39" stroke-miterlimit="10"/>
<path d="M409.343 220.224C410.952 220.224 412.256 218.92 412.256 217.311C412.256 215.703 410.952 214.398 409.343 214.398C407.734 214.398 406.43 215.703 406.43 217.311C406.43 218.92 407.734 220.224 409.343 220.224Z" fill="#272F39" stroke="#272F39" stroke-miterlimit="10"/>
<path d="M392.826 204.691C392.826 204.115 392.655 203.552 392.335 203.073C392.015 202.594 391.56 202.22 391.028 202C390.496 201.779 389.91 201.722 389.345 201.834C388.78 201.946 388.261 202.224 387.853 202.631C387.446 203.039 387.168 203.558 387.056 204.123C386.944 204.688 387.001 205.274 387.222 205.806C387.442 206.338 387.816 206.793 388.295 207.113C388.774 207.433 389.337 207.604 389.913 207.604C390.296 207.604 390.674 207.529 391.028 207.382C391.381 207.236 391.702 207.021 391.973 206.751C392.243 206.48 392.458 206.159 392.604 205.806C392.751 205.452 392.826 205.074 392.826 204.691Z" fill="#272F39" stroke="#272F39" stroke-miterlimit="10"/>
<path d="M392.826 228.972C392.826 228.395 392.655 227.832 392.335 227.353C392.015 226.874 391.56 226.501 391.028 226.28C390.496 226.06 389.91 226.002 389.345 226.115C388.78 226.227 388.261 226.504 387.853 226.912C387.446 227.319 387.168 227.838 387.056 228.403C386.944 228.968 387.001 229.554 387.222 230.086C387.442 230.619 387.816 231.074 388.295 231.394C388.774 231.714 389.337 231.885 389.913 231.885C390.686 231.885 391.427 231.578 391.973 231.031C392.519 230.485 392.826 229.744 392.826 228.972Z" fill="#272F39" stroke="#272F39" stroke-miterlimit="10"/>
<path d="M267.169 376.22C305.113 370.061 330.88 334.308 324.72 296.364C318.561 258.42 282.808 232.653 244.864 238.812C206.92 244.972 181.153 280.724 187.312 318.669C193.472 356.613 229.224 382.379 267.169 376.22Z" stroke="#272F39" stroke-miterlimit="10"/>
<path d="M282.296 333.787C296.808 319.274 296.808 295.745 282.296 281.233C267.784 266.72 244.254 266.72 229.742 281.233C215.229 295.745 215.229 319.274 229.742 333.787C244.254 348.299 267.783 348.299 282.296 333.787Z" stroke="#272F39" stroke-miterlimit="10"/>
<path d="M175.03 252.658C163.434 269.779 157.562 290.134 158.259 310.801C158.955 331.467 166.184 351.381 178.906 367.682C191.629 383.984 209.19 395.833 229.069 401.529C248.947 407.225 270.119 406.473 289.544 399.383C308.969 392.293 325.646 379.229 337.182 362.068C348.717 344.906 354.517 324.53 353.747 303.866C352.977 283.202 345.678 263.314 332.898 247.058C320.118 230.802 302.514 219.015 282.616 213.389" stroke="#272F39" stroke-miterlimit="10"/>
<path d="M190.959 194.959C217.829 168.089 217.829 124.523 190.959 97.653C164.089 70.7827 120.523 70.7827 93.653 97.653C66.7827 124.523 66.7827 168.089 93.653 194.959C120.523 221.829 164.089 221.829 190.959 194.959Z" stroke="#272F39" stroke-miterlimit="10"/>
<path d="M142.31 215.123C169.175 215.123 190.953 193.345 190.953 166.48C190.953 139.616 169.175 117.838 142.31 117.838C115.446 117.838 93.668 139.616 93.668 166.48C93.668 193.345 115.446 215.123 142.31 215.123Z" stroke="#272F39" stroke-miterlimit="10"/>
<path d="M162.443 206.788C173.562 195.669 173.562 177.642 162.443 166.524C151.325 155.405 133.298 155.405 122.179 166.524C111.06 177.642 111.06 195.669 122.179 206.788C133.298 217.906 151.325 217.906 162.443 206.788Z" stroke="#272F39" stroke-miterlimit="10"/>
<path d="M142.312 157.635C153.08 157.635 161.809 148.907 161.809 138.139C161.809 127.372 153.08 118.643 142.312 118.643C131.545 118.643 122.816 127.372 122.816 138.139C122.816 148.907 131.545 157.635 142.312 157.635Z" stroke="#272F39" stroke-miterlimit="10"/>
<path d="M146.965 116.736C157.42 114.164 163.811 103.602 161.239 93.1468C158.667 82.6911 148.106 76.3002 137.65 78.8722C127.195 81.4442 120.804 92.0053 123.376 102.461C125.948 112.917 136.509 119.308 146.965 116.736Z" stroke="#272F39" stroke-miterlimit="10"/>
<path d="M94.5803 139.75C102.997 139.75 109.821 132.927 109.821 124.51C109.821 116.093 102.997 109.269 94.5803 109.269C86.1632 109.269 79.3398 116.093 79.3398 124.51C79.3398 132.927 86.1632 139.75 94.5803 139.75Z" stroke="#272F39" stroke-miterlimit="10"/>
<path d="M190.498 139.75C198.915 139.75 205.739 132.927 205.739 124.51C205.739 116.093 198.915 109.269 190.498 109.269C182.081 109.269 175.258 116.093 175.258 124.51C175.258 132.927 182.081 139.75 190.498 139.75Z" stroke="#272F39" stroke-miterlimit="10"/>
<path d="M119.472 375.867C128.613 375.867 136.023 368.457 136.023 359.317C136.023 350.176 128.613 342.766 119.472 342.766C110.332 342.766 102.922 350.176 102.922 359.317C102.922 368.457 110.332 375.867 119.472 375.867Z" fill="white" stroke="#272F39" stroke-miterlimit="10"/>
<path d="M119.472 373.304C127.197 373.304 133.459 367.042 133.459 359.317C133.459 351.592 127.197 345.33 119.472 345.33C111.747 345.33 105.484 351.592 105.484 359.317C105.484 367.042 111.747 373.304 119.472 373.304Z" fill="white" stroke="#272F39" stroke-miterlimit="10"/>
<path d="M119.471 370.741C125.781 370.741 130.895 365.626 130.895 359.317C130.895 353.007 125.781 347.893 119.471 347.893C113.162 347.893 108.047 353.007 108.047 359.317C108.047 365.626 113.162 370.741 119.471 370.741Z" fill="white" stroke="#272F39" stroke-miterlimit="10"/>
<path d="M119.47 368.178C124.364 368.178 128.332 364.211 128.332 359.317C128.332 354.423 124.364 350.456 119.47 350.456C114.577 350.456 110.609 354.423 110.609 359.317C110.609 364.211 114.577 368.178 119.47 368.178Z" fill="white" stroke="#272F39" stroke-miterlimit="10"/>
<path d="M119.47 365.615C122.948 365.615 125.768 362.795 125.768 359.317C125.768 355.839 122.948 353.019 119.47 353.019C115.992 353.019 113.172 355.839 113.172 359.317C113.172 362.795 115.992 365.615 119.47 365.615Z" fill="white" stroke="#272F39" stroke-miterlimit="10"/>
<path d="M119.473 363.052C121.536 363.052 123.208 361.38 123.208 359.317C123.208 357.254 121.536 355.582 119.473 355.582C117.41 355.582 115.738 357.254 115.738 359.317C115.738 361.38 117.41 363.052 119.473 363.052Z" fill="white" stroke="#272F39" stroke-miterlimit="10"/>
<path d="M87.2185 394.493C96.359 394.493 103.769 387.083 103.769 377.942C103.769 368.802 96.359 361.392 87.2185 361.392C78.0779 361.392 70.668 368.802 70.668 377.942C70.668 387.083 78.0779 394.493 87.2185 394.493Z" fill="white" stroke="#272F39" stroke-miterlimit="10"/>
<path d="M88.9486 391.344C96.5191 389.876 101.466 382.549 99.9986 374.978C98.5309 367.408 91.2039 362.461 83.6334 363.928C76.0629 365.396 71.1156 372.723 72.5834 380.294C74.0511 387.864 81.3781 392.811 88.9486 391.344Z" fill="white" stroke="#272F39" stroke-width="0.998248" stroke-miterlimit="10"/>
<path d="M92.906 368.048C90.9539 366.928 88.714 366.412 86.469 366.565C84.2239 366.717 82.0742 367.53 80.291 368.903C78.5078 370.275 77.1711 372.145 76.4494 374.277C75.7277 376.408 75.6534 378.705 76.2359 380.879C76.8184 383.052 78.0316 385.005 79.7223 386.49C81.4131 387.974 83.5058 388.925 85.7363 389.222C87.9669 389.519 90.2354 389.149 92.2557 388.158C94.276 387.167 95.9576 385.6 97.0883 383.654C97.8429 382.356 98.3333 380.922 98.5314 379.433C98.7296 377.945 98.6315 376.432 98.2428 374.981C97.8541 373.531 97.1825 372.172 96.2666 370.982C95.3507 369.792 94.2086 368.795 92.906 368.048Z" fill="white" stroke="#272F39" stroke-miterlimit="10"/>
<path d="M94.4934 382.994C97.2962 378.982 96.3161 373.458 92.3044 370.655C88.2926 367.852 82.7683 368.832 79.9655 372.844C77.1627 376.855 78.1428 382.38 82.1545 385.183C86.1663 387.985 91.6906 387.005 94.4934 382.994Z" fill="white" stroke="#272F39" stroke-miterlimit="10"/>
<path d="M90.3679 372.491C89.2893 371.867 88.05 371.577 86.8069 371.658C85.5637 371.739 84.3725 372.187 83.3838 372.945C82.3952 373.703 81.6536 374.737 81.2528 375.917C80.852 377.097 80.81 378.368 81.1322 379.572C81.4545 380.775 82.1263 381.856 83.0629 382.678C83.9994 383.499 85.1586 384.025 86.3937 384.187C87.6289 384.35 88.8845 384.142 90.0018 383.591C91.1191 383.04 92.0479 382.17 92.6706 381.091C93.503 379.645 93.728 377.927 93.2964 376.315C92.8648 374.703 91.8117 373.328 90.3679 372.491Z" fill="white" stroke="#272F39" stroke-miterlimit="10"/>
<path d="M89.0827 374.704C88.4418 374.338 87.7069 374.17 86.9707 374.222C86.2346 374.273 85.5301 374.541 84.9463 374.993C84.3626 375.444 83.9256 376.058 83.6906 376.758C83.4555 377.457 83.433 378.211 83.6258 378.923C83.8187 379.636 84.2182 380.275 84.774 380.76C85.3298 381.246 86.0169 381.556 86.7487 381.651C87.4805 381.746 88.2241 381.623 88.8857 381.296C89.5473 380.969 90.0971 380.453 90.4659 379.814C90.7118 379.388 90.871 378.917 90.9345 378.43C90.998 377.942 90.9646 377.446 90.836 376.971C90.7075 376.497 90.4864 376.052 90.1855 375.663C89.8847 375.274 89.5099 374.948 89.0827 374.704Z" fill="white" stroke="#272F39" stroke-miterlimit="10"/>
<path d="M96.8854 428.629C104.305 423.29 105.991 412.947 100.652 405.528C95.3126 398.109 84.97 396.422 77.5508 401.761C70.1316 407.1 68.4454 417.443 73.7845 424.862C79.1235 432.281 89.4662 433.968 96.8854 428.629Z" fill="white" stroke="#272F39" stroke-miterlimit="10"/>
<path d="M89.308 429.021C96.9469 427.871 102.207 420.747 101.058 413.108C99.9077 405.469 92.783 400.208 85.1441 401.358C77.5051 402.508 72.2446 409.633 73.3944 417.271C74.5443 424.91 81.669 430.171 89.308 429.021Z" fill="white" stroke="#272F39" stroke-miterlimit="10"/>
<path d="M95.293 423.27C99.7545 418.809 99.7545 411.575 95.2931 407.114C90.8316 402.652 83.5982 402.652 79.1367 407.114C74.6753 411.575 74.6753 418.809 79.1368 423.27C83.5982 427.731 90.8316 427.731 95.293 423.27Z" fill="white" stroke="#272F39" stroke-miterlimit="10"/>
<path d="M87.2166 424.054C92.1104 424.054 96.0777 420.087 96.0777 415.193C96.0777 410.299 92.1104 406.332 87.2166 406.332C82.3227 406.332 78.3555 410.299 78.3555 415.193C78.3555 420.087 82.3227 424.054 87.2166 424.054Z" fill="white" stroke="#272F39" stroke-miterlimit="10"/>
<path d="M87.2198 421.491C90.6981 421.491 93.5178 418.671 93.5178 415.193C93.5178 411.715 90.6981 408.895 87.2198 408.895C83.7416 408.895 80.9219 411.715 80.9219 415.193C80.9219 418.671 83.7416 421.491 87.2198 421.491Z" fill="white" stroke="#272F39" stroke-miterlimit="10"/>
<path d="M85.3462 411.93C84.7078 412.299 84.1929 412.849 83.8665 413.51C83.54 414.171 83.4166 414.914 83.5117 415.645C83.6068 416.377 83.9162 417.063 84.4009 417.619C84.8856 418.175 85.524 418.574 86.2355 418.768C86.9471 418.961 87.6999 418.94 88.3992 418.706C89.0986 418.472 89.7131 418.037 90.1653 417.454C90.6175 416.872 90.8872 416.169 90.9404 415.433C90.9936 414.698 90.828 413.963 90.4643 413.322C90.2211 412.893 89.8954 412.516 89.5059 412.214C89.1164 411.911 88.6709 411.689 88.1951 411.56C87.7193 411.43 87.2226 411.396 86.7336 411.46C86.2446 411.524 85.7731 411.683 85.3462 411.93Z" fill="white" stroke="#272F39" stroke-miterlimit="10"/>
<path d="M119.472 450.361C128.613 450.361 136.023 442.951 136.023 433.81C136.023 424.67 128.613 417.26 119.472 417.26C110.332 417.26 102.922 424.67 102.922 433.81C102.922 442.951 110.332 450.361 119.472 450.361Z" fill="white" stroke="#272F39" stroke-miterlimit="10"/>
<path d="M119.472 447.798C127.197 447.798 133.459 441.535 133.459 433.81C133.459 426.085 127.197 419.823 119.472 419.823C111.747 419.823 105.484 426.085 105.484 433.81C105.484 441.535 111.747 447.798 119.472 447.798Z" fill="white" stroke="#272F39" stroke-miterlimit="10"/>
<path d="M119.471 445.235C125.781 445.235 130.895 440.12 130.895 433.81C130.895 427.501 125.781 422.386 119.471 422.386C113.162 422.386 108.047 427.501 108.047 433.81C108.047 440.12 113.162 445.235 119.471 445.235Z" fill="white" stroke="#272F39" stroke-miterlimit="10"/>
<path d="M119.47 442.671C124.364 442.671 128.332 438.704 128.332 433.81C128.332 428.917 124.364 424.949 119.47 424.949C114.577 424.949 110.609 428.917 110.609 433.81C110.609 438.704 114.577 442.671 119.47 442.671Z" fill="white" stroke="#272F39" stroke-miterlimit="10"/>
<path d="M119.47 440.108C122.948 440.108 125.768 437.289 125.768 433.81C125.768 430.332 122.948 427.512 119.47 427.512C115.992 427.512 113.172 430.332 113.172 433.81C113.172 437.289 115.992 440.108 119.47 440.108Z" fill="white" stroke="#272F39" stroke-miterlimit="10"/>
<path d="M119.473 437.545C121.536 437.545 123.208 435.873 123.208 433.81C123.208 431.748 121.536 430.076 119.473 430.076C117.41 430.076 115.738 431.748 115.738 433.81C115.738 435.873 117.41 437.545 119.473 437.545Z" fill="white" stroke="#272F39" stroke-miterlimit="10"/>
<path d="M167.495 420.238C170.284 411.533 165.49 402.216 156.785 399.426C148.081 396.636 138.763 401.431 135.973 410.136C133.183 418.84 137.978 428.158 146.683 430.948C155.387 433.737 164.705 428.942 167.495 420.238Z" fill="white" stroke="#272F39" stroke-miterlimit="10"/>
<path d="M144.735 427.309C147.131 428.69 149.883 429.33 152.643 429.148C155.403 428.966 158.047 427.969 160.241 426.284C162.434 424.6 164.079 422.302 164.967 419.683C165.856 417.063 165.947 414.239 165.231 411.568C164.514 408.896 163.022 406.497 160.942 404.674C158.862 402.85 156.288 401.684 153.546 401.323C150.804 400.962 148.016 401.423 145.535 402.646C143.054 403.869 140.992 405.8 139.609 408.195C138.688 409.787 138.091 411.544 137.851 413.366C137.61 415.188 137.731 417.04 138.208 418.815C138.684 420.591 139.505 422.255 140.625 423.712C141.745 425.17 143.142 426.392 144.735 427.309Z" fill="white" stroke="#272F39" stroke-miterlimit="10"/>
<path d="M160.426 422.598C164.515 417.792 163.933 410.582 159.128 406.494C154.322 402.406 147.112 402.987 143.024 407.793C138.935 412.598 139.517 419.808 144.322 423.897C149.128 427.985 156.338 427.404 160.426 422.598Z" fill="white" stroke="#272F39" stroke-miterlimit="10"/>
<path d="M160.465 416.695C161.292 411.872 158.052 407.291 153.229 406.464C148.405 405.637 143.825 408.877 142.998 413.7C142.17 418.524 145.41 423.104 150.234 423.931C155.057 424.758 159.638 421.519 160.465 416.695Z" fill="white" stroke="#272F39" stroke-miterlimit="10"/>
<path d="M151.724 421.491C155.202 421.491 158.022 418.671 158.022 415.193C158.022 411.715 155.202 408.895 151.724 408.895C148.245 408.895 145.426 411.715 145.426 415.193C145.426 418.671 148.245 421.491 151.724 421.491Z" fill="white" stroke="#272F39" stroke-miterlimit="10"/>
<path d="M149.862 418.44C150.503 418.807 151.237 418.976 151.974 418.926C152.71 418.876 153.415 418.609 154 418.158C154.584 417.708 155.022 417.094 155.259 416.395C155.495 415.696 155.518 414.942 155.327 414.229C155.135 413.516 154.736 412.877 154.181 412.39C153.626 411.904 152.939 411.593 152.207 411.497C151.475 411.401 150.731 411.523 150.069 411.85C149.407 412.176 148.857 412.691 148.487 413.33C147.992 414.19 147.859 415.211 148.117 416.169C148.375 417.128 149.003 417.944 149.862 418.44Z" fill="white" stroke="#272F39" stroke-miterlimit="10"/>
<path d="M151.726 394.493C160.867 394.493 168.277 387.083 168.277 377.942C168.277 368.802 160.867 361.392 151.726 361.392C142.586 361.392 135.176 368.802 135.176 377.942C135.176 387.083 142.586 394.493 151.726 394.493Z" fill="white" stroke="#272F39" stroke-miterlimit="10"/>
<path d="M151.726 391.93C159.451 391.93 165.713 385.667 165.713 377.942C165.713 370.217 159.451 363.955 151.726 363.955C144.001 363.955 137.738 370.217 137.738 377.942C137.738 385.667 144.001 391.93 151.726 391.93Z" fill="white" stroke="#272F39" stroke-miterlimit="10"/>
<path d="M157.44 387.837C159.386 386.706 160.953 385.024 161.944 383.004C162.935 380.984 163.305 378.715 163.008 376.485C162.711 374.254 161.76 372.162 160.275 370.471C158.791 368.78 156.838 367.567 154.665 366.984C152.491 366.402 150.194 366.476 148.062 367.198C145.931 367.92 144.061 369.256 142.689 371.039C141.316 372.823 140.502 374.972 140.35 377.217C140.198 379.462 140.714 381.702 141.834 383.654C142.581 384.957 143.578 386.099 144.768 387.015C145.957 387.931 147.317 388.603 148.767 388.991C150.218 389.38 151.73 389.478 153.219 389.28C154.707 389.082 156.142 388.591 157.44 387.837Z" fill="white" stroke="#272F39" stroke-miterlimit="10"/>
<path d="M156.16 385.624C157.678 384.748 158.902 383.442 159.678 381.871C160.453 380.3 160.746 378.534 160.518 376.797C160.29 375.059 159.553 373.428 158.398 372.11C157.244 370.792 155.725 369.846 154.033 369.391C152.34 368.936 150.551 368.993 148.892 369.555C147.232 370.116 145.776 371.157 144.708 372.546C143.64 373.935 143.007 375.61 142.891 377.358C142.774 379.107 143.178 380.85 144.053 382.369C145.227 384.405 147.162 385.892 149.433 386.502C151.703 387.113 154.123 386.796 156.16 385.624Z" fill="white" stroke="#272F39" stroke-miterlimit="10"/>
<path d="M154.876 383.402C155.956 382.78 156.826 381.852 157.378 380.735C157.93 379.619 158.138 378.363 157.976 377.128C157.815 375.893 157.29 374.733 156.47 373.796C155.649 372.859 154.569 372.186 153.366 371.863C152.163 371.54 150.891 371.581 149.711 371.98C148.531 372.38 147.496 373.121 146.737 374.108C145.979 375.096 145.53 376.287 145.447 377.53C145.365 378.773 145.653 380.012 146.276 381.091C147.11 382.538 148.484 383.594 150.097 384.028C151.71 384.461 153.429 384.236 154.876 383.402Z" fill="white" stroke="#272F39" stroke-miterlimit="10"/>
<path d="M153.597 381.181C154.235 380.81 154.75 380.259 155.075 379.597C155.401 378.934 155.523 378.19 155.425 377.458C155.328 376.726 155.016 376.04 154.529 375.485C154.042 374.93 153.401 374.533 152.688 374.342C151.975 374.151 151.222 374.176 150.522 374.413C149.823 374.651 149.21 375.09 148.761 375.675C148.311 376.261 148.045 376.966 147.996 377.703C147.948 378.44 148.118 379.174 148.487 379.814C148.732 380.24 149.059 380.613 149.449 380.912C149.838 381.211 150.283 381.431 150.758 381.558C151.233 381.685 151.728 381.717 152.215 381.652C152.702 381.587 153.172 381.427 153.597 381.181Z" fill="white" stroke="#272F39" stroke-miterlimit="10"/>
<path d="M119.47 428.643C137.185 428.643 151.546 414.283 151.546 396.568C151.546 378.853 137.185 364.492 119.47 364.492C101.755 364.492 87.3945 378.853 87.3945 396.568C87.3945 414.283 101.755 428.643 119.47 428.643Z" fill="#272F39" stroke="#272F39" stroke-miterlimit="10"/>
<path d="M119.471 423.672C134.44 423.672 146.575 411.537 146.575 396.568C146.575 381.599 134.44 369.464 119.471 369.464C104.502 369.464 92.3672 381.599 92.3672 396.568C92.3672 411.537 104.502 423.672 119.471 423.672Z" fill="white" stroke="#272F39" stroke-miterlimit="10"/>
<path d="M124.477 418.14C136.386 415.364 143.79 403.46 141.014 391.552C138.239 379.643 126.335 372.239 114.426 375.015C102.517 377.79 95.1134 389.694 97.889 401.603C100.665 413.512 112.569 420.916 124.477 418.14Z" fill="#272F39" stroke="#272F39" stroke-miterlimit="10"/>
<path d="M123.36 413.305C132.599 411.15 138.341 401.913 136.186 392.675C134.031 383.436 124.795 377.694 115.556 379.849C106.317 382.004 100.575 391.24 102.73 400.479C104.885 409.717 114.121 415.46 123.36 413.305Z" fill="white" stroke="#272F39" stroke-miterlimit="10"/>
<path d="M119.471 408.773C126.212 408.773 131.676 403.309 131.676 396.568C131.676 389.827 126.212 384.362 119.471 384.362C112.73 384.362 107.266 389.827 107.266 396.568C107.266 403.309 112.73 408.773 119.471 408.773Z" fill="#272F39" stroke="#272F39" stroke-miterlimit="10"/>
<path d="M119.472 403.81C123.472 403.81 126.714 400.567 126.714 396.568C126.714 392.568 123.472 389.326 119.472 389.326C115.473 389.326 112.23 392.568 112.23 396.568C112.23 400.567 115.473 403.81 119.472 403.81Z" fill="white" stroke="#272F39" stroke-miterlimit="10"/>
<path d="M392.173 447.733C382.517 447.733 373.078 444.869 365.049 439.505C357.021 434.14 350.763 426.515 347.068 417.594C343.373 408.673 342.406 398.857 344.29 389.387C346.173 379.916 350.823 371.217 357.651 364.389C364.479 357.561 373.178 352.912 382.649 351.028C392.119 349.144 401.935 350.111 410.856 353.806C419.777 357.501 427.402 363.759 432.767 371.787C438.131 379.816 440.995 389.255 440.995 398.911C440.98 411.855 435.831 424.264 426.678 433.417C417.526 442.569 405.117 447.718 392.173 447.733ZM392.173 361.953C384.864 361.953 377.718 364.121 371.64 368.182C365.563 372.243 360.826 378.015 358.028 384.768C355.231 391.521 354.499 398.952 355.925 406.121C357.351 413.29 360.871 419.876 366.04 425.044C371.209 430.213 377.794 433.733 384.963 435.159C392.132 436.585 399.563 435.853 406.316 433.056C413.069 430.259 418.841 425.522 422.902 419.444C426.963 413.366 429.131 406.221 429.131 398.911C429.12 389.113 425.223 379.718 418.294 372.79C411.366 365.861 401.972 361.964 392.173 361.953Z" fill="#272F39"/>
<path d="M392.17 431.304C385.764 431.304 379.501 429.404 374.174 425.845C368.847 422.286 364.695 417.226 362.243 411.307C359.791 405.388 359.15 398.875 360.4 392.592C361.65 386.308 364.735 380.536 369.265 376.006C373.795 371.476 379.567 368.39 385.851 367.14C392.135 365.891 398.648 366.532 404.567 368.984C410.486 371.436 415.545 375.587 419.104 380.915C422.664 386.242 424.564 392.504 424.564 398.911C424.553 407.499 421.136 415.732 415.064 421.805C408.991 427.877 400.758 431.293 392.17 431.304ZM392.17 378.414C388.108 378.411 384.136 379.613 380.757 381.868C377.378 384.124 374.744 387.331 373.189 391.084C371.634 394.837 371.227 398.967 372.02 402.951C372.813 406.935 374.77 410.595 377.643 413.466C380.517 416.337 384.178 418.292 388.163 419.081C392.148 419.871 396.278 419.461 400.029 417.903C403.781 416.344 406.986 413.708 409.238 410.327C411.491 406.947 412.69 402.974 412.684 398.911C412.677 393.471 410.514 388.256 406.669 384.407C402.824 380.559 397.61 378.392 392.17 378.382V378.414Z" fill="#272F39"/>
<path d="M392.173 414.9C389.01 414.9 385.919 413.962 383.29 412.206C380.66 410.449 378.611 407.951 377.401 405.03C376.191 402.108 375.874 398.893 376.491 395.792C377.108 392.69 378.631 389.841 380.867 387.605C383.103 385.369 385.952 383.846 389.053 383.229C392.155 382.612 395.37 382.929 398.291 384.139C401.213 385.349 403.71 387.399 405.467 390.028C407.224 392.657 408.162 395.749 408.162 398.911C408.157 403.15 406.471 407.215 403.474 410.212C400.476 413.21 396.412 414.896 392.173 414.9ZM392.173 394.159C391.233 394.159 390.314 394.438 389.533 394.96C388.751 395.482 388.142 396.224 387.782 397.093C387.423 397.961 387.329 398.916 387.512 399.838C387.695 400.76 388.148 401.607 388.812 402.271C389.477 402.936 390.324 403.388 391.246 403.572C392.167 403.755 393.123 403.661 393.991 403.301C394.859 402.942 395.602 402.333 396.124 401.551C396.646 400.77 396.925 399.851 396.925 398.911C396.922 397.651 396.421 396.444 395.53 395.553C394.64 394.663 393.432 394.161 392.173 394.159Z" fill="#272F39"/>
<path d="M264.126 164.836C264.126 164.836 267.682 162.395 268.414 159.336C269.146 156.276 260.586 155.389 259.089 154.901C257.592 154.413 255.607 156.244 255.208 158.327C254.809 160.41 254.232 162.151 254.899 162.639C255.566 163.128 261.88 164.934 264.126 164.836Z" fill="#D9DBE9" stroke="#272F39" stroke-miterlimit="10"/>
<path d="M251.281 169.45C251.281 169.45 261.688 174.796 265.236 171.541C268.784 168.286 265.293 165.479 262.876 163.583C260.833 162.08 258.688 160.72 256.456 159.515L251.281 169.45Z" fill="#D9DBE9" stroke="#272F39" stroke-miterlimit="10"/>
<path d="M255.312 302.733L256.029 307.509L256.395 302.594L255.312 302.733Z" fill="#272F39"/>
<path d="M257.934 254.456C258.91 264.437 258.942 274.487 258.031 284.473L256.355 302.895C256.3 303.001 256.213 303.086 256.106 303.138C255.999 303.191 255.879 303.207 255.762 303.185C255.645 303.163 255.538 303.104 255.457 303.017C255.377 302.929 255.326 302.818 255.313 302.7L245.883 205.252L253.133 204.545L257.934 254.456Z" fill="#272F39" stroke="#272F39" stroke-miterlimit="10"/>
<path d="M184.652 252.674L189.51 257.695L243.157 204.056L238.291 199.036L184.652 252.674Z" fill="#272F39" stroke="#272F39" stroke-miterlimit="10"/>
<path d="M186.566 236.208L183.621 233.193L181.316 235.444L184.261 238.46L186.566 236.208Z" fill="#FF6969" stroke="#272F39" stroke-miterlimit="10"/>
<path d="M185.462 232.78L183.211 230.474L178.6 234.977L180.852 237.282L185.462 232.78Z" fill="#FF6969" stroke="#272F39" stroke-miterlimit="10"/>
<path d="M185.931 251.015L170.031 261.34L180.739 245.693L211.245 215.904L216.444 221.225L185.931 251.015Z" fill="#FF6969" stroke="#272F39" stroke-miterlimit="10"/>
<path d="M185.931 251.015L180.739 245.693L170.031 261.34L185.931 251.015Z" fill="white" stroke="#272F39" stroke-miterlimit="10"/>
<path d="M174.905 258.175L173.319 256.548L170.031 261.34L174.905 258.175Z" fill="#272F39" stroke="#272F39" stroke-miterlimit="10"/>
<path d="M188.872 235.676C188.162 235.193 187.307 234.97 186.452 235.045C185.596 235.12 184.793 235.489 184.179 236.089C183.565 236.689 183.177 237.483 183.082 238.336C182.986 239.189 183.189 240.049 183.656 240.77L190.23 250.982L198.921 242.495L188.872 235.676ZM190.963 247.296L185.877 240.38C185.137 239.371 185.063 238.215 185.674 237.613C186.284 237.011 187.448 237.125 188.432 237.89L195.226 243.138L190.963 247.296Z" fill="white" stroke="#272F39" stroke-miterlimit="10"/>
<path d="M253.206 193.397L245.191 190.769L253.328 171.981C253.559 171.453 253.977 171.03 254.502 170.794C255.027 170.558 255.621 170.526 256.168 170.703C256.717 170.883 257.179 171.262 257.463 171.764C257.747 172.267 257.834 172.858 257.706 173.421L253.206 193.397Z" fill="#FF6969" stroke="#272F39" stroke-miterlimit="10"/>
<path d="M242.058 187.677H244.499C248.299 187.696 251.986 188.969 254.988 191.298L256.965 192.827L254.524 200.313C253.54 203.325 252.09 206.164 250.228 208.727L248.177 211.55L247.29 214.805H246.696C243.691 214.802 240.766 213.839 238.348 212.055L237.266 211.241L238.405 207.767L238.584 203.698C238.678 201.572 238.994 199.461 239.528 197.4L242.058 187.677Z" fill="#FF6969" stroke="#272F39" stroke-miterlimit="10"/>
<path d="M247.032 195.073C246.896 195.482 246.643 195.842 246.303 196.107C245.963 196.372 245.552 196.53 245.122 196.562C244.692 196.594 244.263 196.497 243.888 196.285C243.513 196.073 243.209 195.754 243.015 195.369C242.821 194.985 242.745 194.551 242.797 194.123C242.85 193.695 243.027 193.293 243.308 192.966C243.589 192.639 243.961 192.403 244.376 192.287C244.791 192.171 245.231 192.181 245.641 192.315C245.914 192.403 246.167 192.545 246.385 192.732C246.604 192.919 246.783 193.147 246.912 193.404C247.041 193.66 247.119 193.94 247.139 194.226C247.16 194.513 247.123 194.801 247.032 195.073Z" fill="#272F39" stroke="#272F39" stroke-miterlimit="10"/>
<path d="M253.403 197.156C253.268 197.568 253.015 197.931 252.675 198.198C252.334 198.466 251.922 198.627 251.49 198.66C251.059 198.694 250.627 198.598 250.249 198.386C249.872 198.174 249.566 197.854 249.37 197.468C249.174 197.082 249.097 196.646 249.148 196.216C249.2 195.786 249.378 195.382 249.66 195.053C249.942 194.724 250.315 194.486 250.732 194.37C251.149 194.253 251.592 194.263 252.003 194.398C252.277 194.486 252.53 194.628 252.749 194.815C252.967 195.001 253.147 195.23 253.277 195.486C253.407 195.742 253.485 196.022 253.506 196.308C253.528 196.595 253.493 196.883 253.403 197.156Z" fill="#272F39" stroke="#272F39" stroke-miterlimit="10"/>
<path d="M381.124 90.172C381.124 90.172 367.731 99.8712 356.779 101.255C345.826 102.638 308.307 104.168 293.88 107.764C279.454 111.361 252.691 122.175 243.008 128.92C233.325 135.666 234.017 139.498 234.806 148.058C235.596 156.618 241.462 165.707 241.462 165.707C241.462 165.707 236.214 179.19 237.972 181.419C239.729 183.649 245.775 182.046 249.575 177.205C253.375 172.363 259.713 156.472 266.776 148.294C273.839 140.116 283.245 138.53 287.314 137.895C291.382 137.26 298.616 140.491 298.819 147.464C298.969 150.562 298.267 153.642 296.787 156.368C295.308 159.094 293.109 161.361 290.43 162.924C285.296 165.943 262.415 171.704 257.883 177.123C253.35 182.542 262 187.311 268.306 186.619C274.612 185.927 279.698 182.323 288.941 178.482C298.714 174.508 309.026 172.02 319.536 171.102C329.162 170.386 350.912 168.946 360.741 159.181C370.571 149.417 379.058 137.83 387.089 133.558C395.12 129.286 405.307 125.161 405.307 125.161L381.124 90.172Z" fill="#D9DBE9" stroke="#272F39" stroke-miterlimit="10"/>
<path d="M387.084 133.566L387.808 133.184L369.296 103.891L367.938 106.617L378.011 140.792C381.127 137.716 384.138 135.129 387.084 133.566Z" fill="#272F39"/>
<path d="M266.374 118.334C266.374 118.334 243.802 135.804 241.255 141.874C238.708 147.944 241.467 165.699 241.467 165.699C241.467 165.699 252.045 141.817 257.163 135.478C262.281 129.14 276.586 118.391 276.586 118.391" stroke="#272F39" stroke-miterlimit="10"/>
<path d="M364.211 98.6914L389.069 147.7L410.095 136.683L389.077 86.1443L364.211 98.6914Z" fill="white" stroke="#272F39" stroke-miterlimit="10"/>
<path d="M395.107 137.203C394.952 137.658 394.666 138.057 394.286 138.35C393.905 138.643 393.447 138.817 392.968 138.851C392.489 138.884 392.01 138.776 391.592 138.539C391.175 138.302 390.836 137.947 390.619 137.519C390.402 137.09 390.316 136.607 390.372 136.13C390.428 135.653 390.624 135.203 390.935 134.837C391.245 134.471 391.657 134.204 392.118 134.071C392.58 133.937 393.07 133.943 393.528 134.087C393.839 134.185 394.127 134.343 394.375 134.554C394.623 134.764 394.827 135.022 394.974 135.313C395.121 135.603 395.209 135.92 395.232 136.245C395.254 136.569 395.212 136.895 395.107 137.203Z" fill="white" stroke="#272F39" stroke-miterlimit="10"/>
<path d="M455.004 122.069C455.004 122.069 421.195 139.156 418.632 141.117C417.43 142.012 415.985 142.519 414.487 142.572C412.99 142.624 411.512 142.219 410.251 141.41C407.956 139.848 382.358 86.4535 382.358 86.4535C382.358 86.4535 381.544 83.1417 382.358 80.6437C383.171 78.1457 416.004 57.9742 416.004 57.9742" fill="white"/>
<path d="M455.004 122.069C455.004 122.069 421.195 139.156 418.632 141.117C417.43 142.012 415.985 142.519 414.487 142.572C412.99 142.624 411.512 142.219 410.251 141.41C407.956 139.848 382.358 86.4535 382.358 86.4535C382.358 86.4535 381.544 83.1417 382.358 80.6437C383.171 78.1457 416.004 57.9742 416.004 57.9742" stroke="#272F39" stroke-miterlimit="10"/>
</svg>
